<svg width="1142" height="692" viewBox="0 0 1142 692" fill="none" xmlns="http://www.w3.org/2000/svg">
<mask id="mask0_10_3121" style="mask-type:alpha" maskUnits="userSpaceOnUse" x="831" y="73" width="271" height="524">
<path d="M1063.29 73.1169H870.874C849.331 73.1169 831.706 90.7159 831.706 112.226V557.578C831.706 579.088 849.331 596.687 870.874 596.687H1062.8C1084.34 596.687 1101.97 579.088 1101.97 557.578V112.226C1102.46 90.7159 1084.83 73.1169 1063.29 73.1169Z" fill="#23272A"/>
</mask>
<g mask="url(#mask0_10_3121)">
<path d="M1091.23 67.8945H816.966V597.248H1091.23V67.8945Z" fill="#3442D9"/>
<path d="M911.536 257.965C904.766 235.472 901.237 224.787 913.422 218.173C925.605 211.559 962.496 216.142 979.786 220.213C997.075 224.284 999.617 228.664 988.295 245.548L911.536 257.965Z" fill="#FFF4B3"/>
<path d="M903.704 459.144C901.026 392.539 902.63 337.411 904.893 307.928C893.831 300.723 888.716 294.999 886.521 292.002C886.078 291.384 885.853 290.639 885.877 289.88C885.901 289.121 886.175 288.393 886.656 287.805C904.226 265.96 919.117 246.941 934.773 237.986C950.669 228.906 971.711 226.807 1005.74 260.768C1005.94 260.956 1006.09 261.182 1006.2 261.43C1006.3 261.679 1006.36 261.948 1006.36 262.218C1006.36 262.49 1006.3 262.757 1006.2 263.007C1006.09 263.256 1005.94 263.481 1005.74 263.669C1001.34 267.895 997.143 271.308 997.143 271.308C1004.1 283.598 1014.1 302.396 1014.1 302.396H1021.91C1026.97 302.396 1031.83 304.4 1035.42 307.969C1039.01 311.538 1041.04 316.384 1041.07 321.446C1041.16 336.734 1037.67 355.136 1030.44 378.807C1062.08 404.412 1054.4 459.009 1054.4 459.009L903.704 459.144Z" fill="#29CC7A"/>
<path d="M1030.43 378.778C1031.46 375.403 1032.37 372.155 1033.28 368.993L1008.49 382.753C1008.49 382.753 969.235 356.248 903.23 339.751C902.108 370.395 901.856 411.868 903.752 459.145L1054.45 458.98C1054.45 458.98 1062.07 404.384 1030.43 378.778Z" fill="#8CD9FF"/>
<path d="M1036.8 384.909C1034.85 382.694 1032.72 380.644 1030.44 378.778C1031.46 375.403 1032.37 372.155 1033.28 368.993L1008.49 382.753C1008.49 382.753 969.237 356.248 903.231 339.751C903.082 343.618 902.957 347.654 902.854 351.857C953.417 372.744 980.474 408.648 983.751 459.057H1021.08C1027.61 430.134 1032.86 404.858 1036.8 384.909Z" fill="#BAE8FF"/>
<path d="M923.17 320.624C923.383 320.623 923.594 320.577 923.789 320.489C923.968 320.402 924.127 320.278 924.257 320.127C924.387 319.975 924.485 319.799 924.542 319.609L938.844 273.339C938.923 272.985 938.864 272.615 938.681 272.303C938.498 271.99 938.206 271.757 937.858 271.652C937.512 271.546 937.139 271.573 936.814 271.73C936.488 271.887 936.232 272.161 936.098 272.498L922.27 317.249C918.943 315.809 910.618 312.028 905.116 308.111C905.045 308.073 904.97 308.04 904.893 308.014C904.807 309.059 904.729 310.152 904.652 311.264C911.894 316.099 922.174 320.324 922.628 320.517C922.8 320.586 922.984 320.623 923.17 320.624Z" fill="black"/>
<path d="M984.212 246.167L925.468 250.527C991.272 263.06 993.969 264.742 984.212 246.167Z" fill="black"/>
<path d="M1016.9 418.541L1010.56 360.223C1010.45 359.183 1009.95 358.228 1009.15 357.546C1008.36 356.863 1007.34 356.507 1006.3 356.547L1000.04 356.77L997.218 351.394C996.412 349.861 995.066 348.682 993.44 348.083C991.816 347.485 990.026 347.511 988.419 348.154C986.747 348.827 985.397 350.114 984.647 351.751C972.338 378.265 966.198 421.847 965.114 430.164C965.062 430.555 965.151 430.952 965.362 431.284C965.575 431.617 965.897 431.864 966.275 431.982L1001.67 443.354C1001.87 443.419 1002.09 443.434 1002.3 443.394C1002.52 443.355 1002.72 443.264 1002.89 443.129C1003.06 442.995 1003.19 442.82 1003.27 442.622C1003.36 442.423 1003.4 442.205 1003.38 441.99L1001.99 425.416L1015.15 421.219C1015.7 421.043 1016.18 420.679 1016.5 420.192C1016.82 419.703 1016.96 419.121 1016.9 418.541Z" fill="#EB459F"/>
<path d="M981.003 430.474H980.849C980.633 430.454 980.424 430.393 980.232 430.292C980.04 430.192 979.871 430.053 979.732 429.887C979.595 429.722 979.491 429.53 979.427 429.323C979.363 429.117 979.339 428.899 979.359 428.685L984.775 371.846C984.815 371.411 985.028 371.01 985.363 370.732C985.7 370.454 986.134 370.319 986.569 370.361C987.003 370.401 987.403 370.614 987.682 370.95C987.96 371.287 988.094 371.72 988.052 372.155L982.637 428.994C982.597 429.399 982.408 429.775 982.105 430.048C981.803 430.321 981.41 430.472 981.003 430.474Z" fill="#D11583"/>
<path d="M969.188 287.522C971.451 286.607 971.837 282.289 970.052 277.879C968.267 273.468 964.986 270.633 962.723 271.549C960.462 272.465 960.074 276.783 961.859 281.194C963.644 285.604 966.925 288.439 969.188 287.522Z" fill="black"/>
<path d="M976.605 306.574H976.373C975.435 306.549 974.516 306.304 973.691 305.857C972.866 305.41 972.158 304.774 971.626 304.002C969.914 301.566 969.692 297.717 970.939 293.713C972.999 287.292 978.249 282.352 982.968 282.352H983.191C984.13 282.372 985.049 282.617 985.876 283.064C986.701 283.511 987.408 284.148 987.938 284.924C989.659 287.351 989.872 291.199 988.625 295.202C986.565 301.643 981.324 306.574 976.605 306.574ZM982.968 285.648C980.068 285.648 975.832 289.245 974.072 294.719C973.105 297.706 973.212 300.521 974.314 302.106C974.55 302.465 974.871 302.762 975.249 302.967C975.627 303.173 976.049 303.283 976.48 303.287H976.605C979.507 303.287 983.742 299.689 985.492 294.216C986.459 291.227 986.363 288.414 985.25 286.818C985.014 286.459 984.693 286.165 984.314 285.962C983.937 285.757 983.514 285.65 983.084 285.648H982.968Z" fill="white"/>
<path d="M1000.95 306.574H1000.72C999.781 306.55 998.863 306.304 998.038 305.858C997.212 305.41 996.505 304.774 995.972 304.002C994.26 301.565 994.037 297.717 995.285 293.714C997.383 287.187 1002.75 282.207 1007.55 282.361C1008.48 282.383 1009.4 282.627 1010.23 283.075C1011.06 283.522 1011.76 284.159 1012.29 284.933C1014.01 287.36 1014.23 291.209 1012.98 295.213C1010.92 301.643 1005.67 306.574 1000.95 306.574ZM1007.31 285.649C1004.41 285.649 1000.18 289.246 998.418 294.719C997.451 297.706 997.557 300.521 998.67 302.106C998.906 302.467 999.226 302.763 999.604 302.968C999.982 303.174 1000.4 303.284 1000.84 303.287H1000.95C1003.85 303.287 1008.09 299.69 1009.85 294.216C1010.81 291.228 1010.71 288.414 1009.61 286.818C1009.37 286.461 1009.04 286.167 1008.66 285.962C1008.28 285.758 1007.86 285.651 1007.43 285.649H1007.31Z" fill="white"/>
<path d="M993.869 286.694C995.428 286.064 995.304 282.121 993.591 277.889C991.879 273.656 989.226 270.735 987.667 271.367C986.107 271.998 986.232 275.941 987.944 280.174C989.657 284.406 992.31 287.326 993.869 286.694Z" fill="black"/>
<path d="M1009.78 331.194C998.659 331.541 985.17 327.268 974.968 318.913C964.767 310.558 968.818 309.494 975.258 309.408C981.699 309.32 1012.43 310.374 1021.37 311.747C1030.32 313.121 1031.84 330.527 1009.78 331.194Z" fill="#912869"/>
<path d="M1009.78 331.194C998.659 331.541 985.17 327.268 974.968 318.913C964.767 310.558 968.818 309.494 975.258 309.408C981.699 309.32 1012.43 310.374 1021.37 311.747C1030.32 313.121 1031.84 330.527 1009.78 331.194Z" fill="#611B46"/>
<path d="M1009.12 351.258C1008.72 351.258 1008.32 351.107 1008.02 350.834C1007.72 350.559 1007.53 350.183 1007.49 349.779L1006.88 343.667C1006.86 343.446 1006.88 343.223 1006.95 343.01C1007.01 342.797 1007.12 342.601 1007.27 342.432C1007.41 342.263 1007.59 342.125 1007.79 342.027C1007.99 341.928 1008.2 341.872 1008.43 341.86C1012.82 341.543 1017.09 340.332 1021 338.301C1021.18 338.179 1021.4 338.098 1021.62 338.062C1021.84 338.024 1022.06 338.033 1022.28 338.085C1022.5 338.139 1022.7 338.235 1022.88 338.37C1023.06 338.504 1023.21 338.674 1023.32 338.869C1023.43 339.063 1023.5 339.277 1023.52 339.499C1023.55 339.723 1023.53 339.947 1023.46 340.161C1023.4 340.374 1023.29 340.572 1023.14 340.744C1023 340.915 1022.82 341.053 1022.62 341.154C1018.81 343.181 1014.65 344.492 1010.36 345.021L1010.81 349.469C1010.85 349.905 1010.72 350.34 1010.44 350.68C1010.16 351.019 1009.76 351.233 1009.33 351.278L1009.12 351.258Z" fill="black"/>
<path d="M1015.83 330.488C1006.98 321.93 994.997 315.48 972.728 316.999C991.854 334.53 1011.74 331.609 1015.83 330.488Z" fill="#EB459F"/>
<path d="M997.598 290.571H987.649V293.858H997.598V290.571Z" fill="white"/>
<path d="M972.504 295.86C972.293 295.859 972.082 295.82 971.885 295.744L929.338 278.531C928.702 278.27 928.01 278.17 927.326 278.238C926.64 278.307 925.982 278.542 925.409 278.924C924.837 279.306 924.366 279.823 924.039 280.428C923.713 281.034 923.541 281.711 923.537 282.4C923.537 283.206 923.77 283.994 924.208 284.672C924.645 285.349 925.268 285.886 926.002 286.219L928.797 287.496C929.173 287.688 929.46 288.02 929.6 288.419C929.739 288.819 929.719 289.256 929.543 289.641C929.368 290.026 929.051 290.328 928.658 290.485C928.265 290.643 927.826 290.641 927.434 290.483L924.639 289.217C922.815 288.433 921.376 286.957 920.639 285.113C919.903 283.268 919.929 281.208 920.713 279.383C921.496 277.557 922.973 276.12 924.818 275.383C926.661 274.647 928.723 274.673 930.547 275.456L973.094 292.659C973.451 292.801 973.746 293.062 973.93 293.399C974.114 293.736 974.174 294.126 974.101 294.502C974.028 294.878 973.825 295.218 973.528 295.459C973.231 295.702 972.859 295.834 972.475 295.831L972.504 295.86Z" fill="white"/>
<path d="M963.618 274.403C963.182 274.403 962.763 274.229 962.454 273.921C962.146 273.613 961.973 273.195 961.973 272.759C961.973 272.323 962.146 271.905 962.454 271.597C962.763 271.287 963.182 271.115 963.618 271.115C966.757 271.18 969.886 270.766 972.9 269.886C973.312 269.74 973.764 269.764 974.16 269.952C974.554 270.14 974.857 270.475 975.003 270.888C975.149 271.299 975.126 271.752 974.939 272.147C974.751 272.541 974.414 272.845 974.003 272.991C970.637 274.007 967.131 274.482 963.618 274.403Z" fill="black"/>
<path d="M988.323 274.315C987.908 274.284 987.519 274.096 987.237 273.79C986.954 273.485 986.796 273.084 986.796 272.666C986.796 272.25 986.954 271.849 987.237 271.543C987.519 271.238 987.908 271.05 988.323 271.018C990.117 271.068 991.897 270.691 993.516 269.915C993.895 269.697 994.344 269.638 994.766 269.752C995.187 269.866 995.546 270.142 995.764 270.52C995.982 270.898 996.041 271.347 995.928 271.769C995.814 272.191 995.539 272.55 995.16 272.768C993.043 273.839 990.695 274.37 988.323 274.315Z" fill="black"/>
<path d="M917.183 252.066C975.928 251.388 995.731 244.716 1012.59 238.644C1029.46 232.571 1027.76 227.852 1014.88 228.249C1002 228.645 958.096 245.587 917.183 252.066Z" fill="#FFF4B3"/>
<path d="M902.68 357.001L902.399 373.218L910.387 370.057C910.387 370.057 953.35 352.138 963.619 349.634C971.577 347.7 983.404 351.964 998.13 357.543C1012.86 363.122 1008.89 368.267 1004.34 373.266C999.785 378.265 999.93 377.822 975.687 377.822C929.562 411.163 915.319 430.705 896.511 430.705C885.12 430.705 875.372 425.744 868.158 403.234C861.467 382.347 874.328 370.704 902.68 357.001Z" fill="#29CC7A"/>
<path d="M1063.75 375.577L1038.98 345.804L997.027 387.762L1026.8 412.526C1026.36 415.272 1026.8 417.497 1028.15 418.899C1032.66 423.394 1045.7 417.651 1057.28 406.067C1068.86 394.482 1074.62 381.438 1070.11 376.931C1068.72 375.539 1066.49 375.133 1063.75 375.577Z" fill="white"/>
<path d="M1023.59 372.365C1035.17 360.779 1042.07 348.889 1038.98 345.808C1035.9 342.725 1024.01 349.621 1012.43 361.206C1000.84 372.791 993.948 384.682 997.03 387.763C1000.11 390.844 1012 383.95 1023.59 372.365Z" fill="white"/>
<path d="M1020.76 369.54C1031.25 359.05 1038.32 349.113 1036.56 347.346C1034.79 345.578 1024.85 352.65 1014.36 363.141C1003.87 373.63 996.8 383.568 998.568 385.336C1000.33 387.102 1010.27 380.031 1020.76 369.54Z" fill="#BAE8FF"/>
<path d="M1061.44 362.929C1068.59 363.954 1071.3 370.444 1068.49 378.924C1068.18 379.842 1067.64 380.664 1066.92 381.312C1066.2 381.958 1065.33 382.407 1064.38 382.614C1063.44 382.82 1062.46 382.778 1061.53 382.491C1060.61 382.202 1059.78 381.68 1059.12 380.974C1057.5 379.238 1056.52 377.006 1056.33 374.641C1056.14 372.277 1056.76 369.917 1058.08 367.948L1061.44 362.929Z" fill="#29CC7A"/>
<path d="M1049.13 358.026C1048.72 364.158 1045.17 370.336 1042.55 374.128C1041.8 375.229 1041.45 376.559 1041.58 377.887C1041.71 379.216 1042.29 380.459 1043.24 381.399L1044.47 382.626C1045.35 383.501 1046.54 383.992 1047.77 383.992C1049.01 383.992 1050.2 383.501 1051.08 382.626C1056.19 377.541 1059.37 372.957 1061.07 365.589C1063.14 356.712 1056.61 350.485 1045.41 353.56L1049.13 358.026Z" fill="#29CC7A"/>
<path d="M917.182 252.065L937.178 250.441L985.46 240.906L973.451 229.061H916.041L917.182 252.065Z" fill="#FFF4B3"/>
<path d="M1014.32 312.869C1011.13 312.588 1007.09 312.327 1002.85 312.105C1004.17 319.019 1007.48 322.694 1010.31 321.524C1012.86 320.46 1014.07 314.31 1014.32 312.869Z" fill="white"/>
<path d="M978.827 311.273C980.267 319.261 983.372 323.419 986.059 321.988C988.37 320.759 989.579 314.146 989.976 311.554C985.335 311.39 981.283 311.293 978.827 311.273Z" fill="white"/>
<path d="M997.992 384.435C998.081 384.768 998.27 385.064 998.534 385.286C998.57 385.33 998.612 385.369 998.659 385.402L998.747 385.459C1000.92 386.669 1010.58 379.716 1020.75 369.544L1021 369.302L1014.53 362.968L1009.27 357.65L1002.4 357.853L988.922 352.737L988.342 353.927C994.046 355.794 995.216 376.516 997.992 384.435Z" fill="#EB459F"/>
<path d="M1000.05 356.771C1003.41 362.949 1007.47 373.905 1007.51 374.021C1007.61 374.302 1007.79 374.546 1008.03 374.718C1008.27 374.892 1008.56 374.986 1008.85 374.988C1009.02 374.987 1009.19 374.958 1009.36 374.901C1009.71 374.767 1010 374.496 1010.16 374.15C1010.31 373.806 1010.33 373.411 1010.2 373.055C1010.03 372.61 1006.51 363.104 1003.24 356.683L1000.05 356.771Z" fill="#D11583"/>
<path d="M1002 425.503C1001.9 425.494 1001.8 425.494 1001.71 425.503L989.089 429.256C988.848 429.331 988.632 429.47 988.462 429.656C988.292 429.843 988.175 430.072 988.122 430.318C988.07 430.569 988.084 430.828 988.164 431.071C988.244 431.313 988.386 431.531 988.577 431.701L999.717 441.507C999.856 441.631 1000.02 441.727 1000.2 441.787C1000.38 441.849 1000.57 441.875 1000.75 441.863C1000.94 441.851 1001.12 441.803 1001.29 441.72C1001.46 441.637 1001.61 441.522 1001.74 441.381C1001.86 441.24 1001.96 441.076 1002.02 440.898C1002.08 440.721 1002.1 440.533 1002.09 440.345C1002.08 440.157 1002.03 439.973 1001.95 439.804C1001.87 439.636 1001.75 439.484 1001.61 439.36L992.415 431.266L1002.27 428.365L1002 425.503Z" fill="#D11583"/>
<path d="M878.725 385.382C878.352 385.385 877.99 385.26 877.698 385.029C877.405 384.797 877.199 384.474 877.115 384.111C877.03 383.748 877.072 383.366 877.233 383.03C877.393 382.694 877.664 382.421 877.999 382.259C878.077 382.259 886.615 377.986 901.256 371.148C901.451 371.057 901.664 371.006 901.88 370.995C902.096 370.986 902.312 371.02 902.515 371.095C902.719 371.168 902.906 371.281 903.065 371.428C903.224 371.574 903.354 371.75 903.445 371.946C903.537 372.143 903.589 372.355 903.598 372.571C903.608 372.788 903.574 373.003 903.5 373.207C903.427 373.411 903.313 373.598 903.167 373.757C903.021 373.916 902.845 374.045 902.647 374.137C888.046 380.905 879.537 385.17 879.441 385.209C879.217 385.318 878.973 385.378 878.725 385.382Z" fill="black"/>
<path d="M915.17 251.166C914.753 251.171 914.351 251.018 914.043 250.739C913.736 250.458 913.546 250.073 913.512 249.658C913.477 249.244 913.601 248.831 913.859 248.505C914.116 248.179 914.488 247.961 914.9 247.898C949.198 242.154 963.248 238.885 991.823 231.671C992.246 231.565 992.694 231.632 993.068 231.855C993.443 232.08 993.713 232.443 993.819 232.866C993.926 233.289 993.86 233.737 993.635 234.111C993.412 234.486 993.049 234.756 992.624 234.862C963.953 242.106 949.865 245.383 915.44 251.146C915.352 251.163 915.26 251.17 915.17 251.166Z" fill="#FFC619"/>
<path d="M1012.72 390.75L1030.56 407.121C1031.1 407.609 1031.78 407.907 1032.5 407.967C1033.22 408.025 1033.95 407.844 1034.55 407.45C1034.96 407.179 1035.31 406.82 1035.56 406.4C1035.81 405.978 1035.96 405.507 1036.01 405.018C1036.05 404.529 1035.99 404.037 1035.82 403.577C1035.64 403.117 1035.37 402.702 1035.02 402.363L1017.61 385.712C1017.09 385.213 1016.42 384.901 1015.7 384.824C1014.99 384.747 1014.26 384.91 1013.65 385.286L1013.18 385.576C1012.75 385.842 1012.39 386.204 1012.13 386.632C1011.87 387.06 1011.71 387.545 1011.66 388.048C1011.62 388.549 1011.69 389.054 1011.87 389.523C1012.06 389.993 1012.34 390.412 1012.72 390.75Z" fill="#BAE8FF"/>
<path d="M1057.34 379.108C1057.04 379.105 1056.75 379.02 1056.49 378.865C1056.23 378.709 1056.03 378.486 1055.89 378.221C1055.75 377.956 1055.68 377.658 1055.7 377.361C1055.72 377.062 1055.81 376.773 1055.98 376.525C1059.95 370.791 1060.7 366.971 1061.14 363.548C1061.19 363.115 1061.42 362.722 1061.76 362.454C1062.11 362.186 1062.55 362.067 1062.98 362.122C1063.41 362.177 1063.81 362.403 1064.07 362.748C1064.34 363.094 1064.46 363.531 1064.41 363.965C1063.94 367.619 1063.08 372.058 1058.69 378.401C1058.54 378.621 1058.34 378.799 1058.1 378.922C1057.87 379.045 1057.6 379.109 1057.34 379.108Z" fill="black"/>
<path d="M1195.07 462.103H762.912V596.948H1195.07V462.103Z" fill="#5865F2"/>
<path d="M762.912 503.741L1195.07 468.959V462.103H762.912V503.741Z" fill="#4B59F2"/>
<path d="M1078.07 462.103H1074.92V596.948H1078.07V462.103Z" fill="#3543DE"/>
<path d="M1039.07 462.103H1035.92V596.948H1039.07V462.103Z" fill="#3543DE"/>
<path d="M1000.07 462.103H996.92V596.948H1000.07V462.103Z" fill="#3543DE"/>
<path d="M961.065 462.103H957.913V596.948H961.065V462.103Z" fill="#3543DE"/>
<path d="M922.066 462.103H918.915V596.948H922.066V462.103Z" fill="#3543DE"/>
<path d="M883.068 462.103H879.916V596.948H883.068V462.103Z" fill="#3543DE"/>
<path d="M844.069 462.103H840.917V596.948H844.069V462.103Z" fill="#3543DE"/>
<path d="M1211.05 466.067H753.619C753.081 466.095 752.543 466.011 752.039 465.825C751.534 465.637 751.073 465.348 750.683 464.977C750.294 464.606 749.983 464.16 749.77 463.665C749.559 463.17 749.449 462.637 749.449 462.098C749.449 461.56 749.559 461.028 749.77 460.533C749.983 460.038 750.294 459.591 750.683 459.219C751.073 458.848 751.534 458.56 752.039 458.373C752.543 458.185 753.081 458.103 753.619 458.129H1211.05C1212.07 458.18 1213.03 458.62 1213.73 459.359C1214.44 460.097 1214.83 461.078 1214.83 462.098C1214.83 463.118 1214.44 464.1 1213.73 464.839C1213.03 465.578 1212.07 466.018 1211.05 466.067Z" fill="#2835BD"/>
<path d="M1053.23 205.64C1052.08 204.895 1051.1 203.914 1050.36 202.763C1049.62 201.61 1049.13 200.315 1048.93 198.959L1048.22 194.298C1048.2 194.187 1048.15 194.085 1048.06 194.013C1047.98 193.94 1047.87 193.9 1047.76 193.901C1047.64 193.9 1047.54 193.94 1047.45 194.013C1047.36 194.085 1047.31 194.187 1047.29 194.298L1046.6 198.959C1046.39 200.315 1045.9 201.61 1045.16 202.763C1044.42 203.914 1043.44 204.895 1042.29 205.64L1041.68 206.028C1041.62 206.07 1041.56 206.129 1041.53 206.198C1041.49 206.267 1041.47 206.345 1041.47 206.424C1041.47 206.501 1041.49 206.578 1041.53 206.644C1041.56 206.712 1041.62 206.77 1041.68 206.81L1042.29 207.207C1043.44 207.951 1044.42 208.931 1045.16 210.081C1045.9 211.231 1046.39 212.526 1046.6 213.879L1047.29 218.54C1047.31 218.651 1047.36 218.753 1047.45 218.825C1047.54 218.898 1047.64 218.938 1047.76 218.937C1047.87 218.938 1047.98 218.898 1048.06 218.825C1048.15 218.753 1048.2 218.651 1048.22 218.54L1048.93 213.879C1049.13 212.525 1049.61 211.229 1050.36 210.077C1051.1 208.927 1052.08 207.947 1053.23 207.207L1053.84 206.81C1053.9 206.77 1053.96 206.712 1053.99 206.644C1054.03 206.578 1054.05 206.501 1054.05 206.424C1054.05 206.345 1054.03 206.267 1054 206.198C1053.96 206.129 1053.9 206.07 1053.84 206.028L1053.23 205.64Z" fill="#5865F2"/>
<path d="M1026.17 160.763C1024.54 159.715 1023.15 158.331 1022.1 156.703C1021.05 155.076 1020.36 153.243 1020.07 151.325L1019.1 144.721C1019.08 144.564 1019 144.422 1018.88 144.32C1018.76 144.217 1018.6 144.161 1018.45 144.161C1018.29 144.161 1018.13 144.217 1018.01 144.32C1017.89 144.422 1017.81 144.564 1017.79 144.721L1016.82 151.325C1016.53 153.243 1015.84 155.076 1014.79 156.703C1013.74 158.331 1012.35 159.715 1010.72 160.763L1009.87 161.314C1009.77 161.374 1009.7 161.458 1009.64 161.556C1009.59 161.654 1009.56 161.764 1009.56 161.875C1009.56 161.987 1009.59 162.098 1009.64 162.196C1009.69 162.294 1009.77 162.377 1009.87 162.436L1010.72 162.987C1012.35 164.038 1013.74 165.425 1014.79 167.054C1015.84 168.682 1016.53 170.517 1016.82 172.435L1017.79 179.03C1017.81 179.188 1017.89 179.333 1018.01 179.437C1018.13 179.541 1018.29 179.599 1018.45 179.6C1018.6 179.599 1018.76 179.541 1018.88 179.437C1019 179.333 1019.08 179.188 1019.1 179.03L1020.07 172.435C1020.36 170.517 1021.05 168.682 1022.1 167.054C1023.15 165.425 1024.54 164.038 1026.17 162.987L1027.02 162.436C1027.12 162.377 1027.2 162.294 1027.25 162.196C1027.3 162.098 1027.33 161.987 1027.33 161.875C1027.33 161.764 1027.3 161.654 1027.25 161.556C1027.19 161.458 1027.12 161.374 1027.02 161.314L1026.17 160.763Z" fill="#8CD9FF"/>
<path d="M865.586 340.544C864.436 339.801 863.457 338.822 862.712 337.671C861.969 336.521 861.479 335.226 861.274 333.872L860.576 329.202C860.558 329.092 860.502 328.991 860.417 328.918C860.332 328.846 860.224 328.806 860.113 328.805C860.001 328.806 859.893 328.846 859.809 328.918C859.724 328.991 859.666 329.092 859.648 329.202L858.952 333.872C858.747 335.226 858.256 336.521 857.513 337.671C856.769 338.822 855.79 339.801 854.639 340.544L854.03 340.932C853.964 340.973 853.91 341.032 853.873 341.101C853.835 341.171 853.817 341.249 853.818 341.327C853.817 341.406 853.836 341.484 853.874 341.553C853.911 341.622 853.964 341.681 854.03 341.724L854.639 342.111C855.79 342.854 856.769 343.833 857.513 344.983C858.256 346.133 858.747 347.429 858.952 348.783L859.648 353.444C859.665 353.556 859.72 353.658 859.806 353.732C859.891 353.807 859.999 353.849 860.113 353.85C860.226 353.849 860.335 353.807 860.42 353.732C860.505 353.658 860.561 353.556 860.576 353.444L861.274 348.783C861.479 347.429 861.969 346.133 862.712 344.983C863.457 343.833 864.436 342.854 865.586 342.111L866.185 341.724C866.251 341.681 866.304 341.622 866.342 341.553C866.379 341.484 866.398 341.406 866.398 341.327C866.4 341.249 866.38 341.171 866.343 341.101C866.306 341.032 866.252 340.973 866.185 340.932L865.586 340.544Z" fill="#FFF4B3"/>
<path d="M1063.29 73.1169H870.874C849.332 73.1169 831.706 90.7159 831.706 112.226V557.578C831.706 579.088 849.332 596.687 870.874 596.687H1062.8C1084.34 596.687 1101.97 579.088 1101.97 557.578V112.226C1102.46 90.7159 1084.83 73.1169 1063.29 73.1169ZM1087.77 557.578C1087.77 571.266 1077 582.022 1063.29 582.022H870.874C857.165 582.022 846.394 571.266 846.394 557.578V112.226C846.394 98.5378 857.165 87.7828 870.874 87.7828H881.156H884.094C891.437 87.7828 897.312 93.6491 897.312 100.982C897.312 108.315 903.188 114.67 911.022 114.67H1022.65C1029.99 114.67 1035.87 108.804 1035.87 101.471C1035.87 94.1379 1041.75 88.2716 1049.09 88.2716H1051.05H1062.31C1076.02 88.2716 1086.79 99.0266 1086.79 112.715V557.578H1087.77Z" fill="#23272A"/>
<g filter="url(#filter0_d_10_3121)">
<path d="M929.63 571.879C946.937 571.879 960.966 557.85 960.966 540.543C960.966 523.237 946.937 509.208 929.63 509.208C912.324 509.208 898.294 523.237 898.294 540.543C898.294 557.85 912.324 571.879 929.63 571.879Z" fill="#DBE7FF"/>
<path d="M942.068 535.515C941.683 535.276 941.201 535.257 940.797 535.458L937.464 537.125V534.015C937.464 532.575 936.293 531.404 934.853 531.404H919.185C917.745 531.404 916.574 532.575 916.574 534.015V547.072C916.574 548.513 917.745 549.683 919.185 549.683H934.853C936.293 549.683 937.464 548.513 937.464 547.072V543.962L940.797 545.628C940.982 545.72 941.181 545.766 941.381 545.766C941.62 545.766 941.858 545.7 942.068 545.572C942.452 545.333 942.687 544.913 942.687 544.46V536.626C942.687 536.173 942.452 535.754 942.068 535.515Z" fill="#1C1B29"/>
</g>
<g filter="url(#filter1_d_10_3121)">
<path d="M1004.05 571.879C1021.36 571.879 1035.39 557.85 1035.39 540.543C1035.39 523.237 1021.36 509.208 1004.05 509.208C986.747 509.208 972.717 523.237 972.717 540.543C972.717 557.85 986.747 571.879 1004.05 571.879Z" fill="#E7366B"/>
<path fill-rule="evenodd" clip-rule="evenodd" d="M1015.96 526.333L1018.26 528.641L1014.2 532.709L1018.26 536.778L1015.96 539.086L1011.89 535.018L1007.82 539.086L1005.51 536.778L1009.58 532.709L1005.51 528.641L1007.82 526.333L1011.89 530.401L1015.96 526.333ZM1011.89 553.6H1005.36C997.427 553.6 990.996 547.17 990.996 539.238V532.709C990.996 531.987 991.581 531.404 992.302 531.404H997.525C998.247 531.404 998.83 531.987 998.83 532.709V537.932C998.83 538.654 998.247 539.238 997.525 539.238H996.219C996.301 544.379 1000.14 548.377 1005.36 548.377V547.072C1005.36 546.35 1005.94 545.766 1006.66 545.766H1011.89C1012.61 545.766 1013.19 546.35 1013.19 547.072V552.294C1013.19 553.016 1012.61 553.6 1011.89 553.6Z" fill="white"/>
</g>
<path d="M859.124 103.147H45.698C39.9292 103.147 35.2527 107.824 35.2527 113.592V607.132C35.2527 612.901 39.9292 617.577 45.698 617.577H859.124C864.893 617.577 869.57 612.901 869.57 607.132V113.592C869.57 107.824 864.893 103.147 859.124 103.147Z" fill="#292841"/>
</g>
<mask id="mask1_10_3121" style="mask-type:alpha" maskUnits="userSpaceOnUse" x="635" y="355" width="214" height="126">
<path d="M838.234 355.14H646.302C640.533 355.14 635.857 359.816 635.857 365.585V470.038C635.857 475.807 640.533 480.483 646.302 480.483H838.234C844.003 480.483 848.679 475.807 848.679 470.038V365.585C848.679 359.816 844.003 355.14 838.234 355.14Z" fill="#C4C4C4"/>
</mask>
<g mask="url(#mask1_10_3121)">
<path d="M858.693 349.917H629.609V484.837H858.693V349.917Z" fill="#5865F2"/>
<path d="M727.177 484.347C727.087 484.134 717.913 462.658 699.07 456.33C688.415 452.75 676.645 454.63 664.105 461.923L663.572 462.248L663.136 461.764C660.419 458.737 652.342 451.343 647.686 453.421C645.021 454.604 642.219 459.478 643.956 475.972L644.078 477.117L642.965 476.83C642.854 476.83 632.129 474.092 627.648 477.97C626.098 479.313 625.491 481.268 625.783 483.952L624.185 484.129C623.834 480.932 624.644 478.449 626.594 476.761C630.856 473.096 639.215 474.4 642.246 475.029C640.93 461.518 642.496 453.969 647.041 451.956C653.023 449.292 661.809 458.018 663.897 460.225C676.645 452.952 688.665 451.136 699.629 454.822C719.16 461.385 728.595 483.511 728.685 483.729L727.177 484.347Z" fill="#808AFF"/>
<path d="M736.928 484.837C756.006 445.461 766.662 397.923 766.662 397.923L767.519 393.39L809.244 408.451L805.925 484.837H736.928Z" fill="#2835BD"/>
<path d="M745.165 484.837C761.904 450.293 771.269 408.541 771.269 408.541L773.545 397.007L805.718 408.541V484.837H745.165Z" fill="black"/>
<path d="M739.106 484.843H753.085V369.267H739.106V484.843Z" fill="#2835BD"/>
<path d="M739.106 384.184C741.193 385.152 743.515 385.502 745.796 385.192C748.077 384.884 750.221 383.93 751.977 382.442L753.085 381.498V376.246L739.106 373.651V384.184Z" fill="black"/>
<path d="M760.569 484.838C750.927 482.53 737.917 469.436 737.917 469.436C737.917 469.436 733.388 479.637 730.698 484.838H721.018C716.586 484.838 713.096 480.618 713.559 476.212C714.002 471.998 716.005 467.272 719.042 460.373C724.102 448.876 725.728 442.851 735.716 442.851H744.699L765.332 433.699C778.694 440.624 787.852 444.683 795.651 449.403C807.27 456.425 816.348 470.804 807.403 484.838H760.569Z" fill="#FFC619"/>
<path d="M858.692 408.541V484.837H801.288C784.549 450.293 767.517 393.39 767.517 393.39L858.692 408.541Z" fill="#2835BD"/>
<path d="M799.201 410.886L858.695 420.938V484.837H826.223C818.466 467.106 799.201 410.886 799.201 410.886Z" fill="#2835BD"/>
<path d="M813.472 479.457C813.339 479.457 813.208 479.423 813.091 479.36C812.975 479.296 812.874 479.205 812.801 479.094C803.906 465.331 796.845 450.466 791.794 434.875C791.764 434.776 791.754 434.67 791.764 434.567C791.775 434.462 791.806 434.362 791.856 434.269C791.905 434.178 791.972 434.096 792.053 434.03C792.134 433.964 792.228 433.914 792.327 433.884C792.531 433.824 792.749 433.848 792.935 433.947C793.121 434.046 793.261 434.216 793.323 434.417C798.333 449.851 805.33 464.567 814.138 478.194C814.253 478.372 814.293 478.587 814.249 478.794C814.205 479 814.081 479.181 813.904 479.296C813.78 479.392 813.629 479.448 813.472 479.457Z" fill="black"/>
<path d="M825.957 468.146C828.15 468.143 830.323 468.574 832.349 469.412C834.377 470.249 836.219 471.479 837.772 473.029C839.323 474.579 840.554 476.42 841.395 478.446C842.236 480.471 842.668 482.644 842.669 484.837H809.25C809.25 482.644 809.682 480.473 810.521 478.446C811.361 476.42 812.592 474.579 814.143 473.029C815.696 471.479 817.537 470.249 819.564 469.412C821.591 468.574 823.763 468.143 825.957 468.146Z" fill="#404EED"/>
<path d="M802.093 484.837C785.353 450.293 775.988 408.541 775.988 408.541L802.093 484.837Z" fill="#2835BD"/>
<path d="M769.808 484.837C769.867 484.688 775.775 469.163 778.865 459.483L779.063 458.865C781.161 452.334 782.84 447.08 782.626 442.419L784.065 443.138C784.065 447.815 782.434 452.978 780.405 459.297L780.202 459.915C777.373 468.722 772.243 482.323 771.263 484.837H769.77C769.798 484.805 769.798 484.869 769.808 484.837Z" fill="black"/>
<path d="M715.84 482.359C715.314 481.838 714.914 481.202 714.669 480.504C714.425 479.804 714.343 479.057 714.429 478.322C715.051 472.136 718.265 464.816 721.599 457.219C722.76 454.555 723.964 451.828 725.046 449.154L726.351 449.686C725.285 452.381 724.055 455.131 722.888 457.789C718.813 467.011 714.944 475.833 715.84 482.359Z" fill="white"/>
<path d="M744.695 459.856C746.331 466.569 748.654 475.306 751.648 484.837H769.761C769.761 484.837 775.707 469.344 778.856 459.536C782.004 449.728 784.348 442.792 781.195 436.309C778.04 429.825 773.006 429.382 765.351 433.699L766.485 445.925L760.754 462.286L757.999 453.633C752.378 449.861 745.217 451.945 744.695 459.856Z" fill="#FFC619"/>
<path d="M768.018 479.009L769.488 474.715C772.686 465.375 775.455 457.31 777.352 450.011C778.951 443.958 780.192 436.798 779.414 433.559C780.058 434.334 780.609 435.182 781.055 436.085C781.055 440.731 779.542 447.193 778.717 450.368C776.804 457.715 774.033 465.818 770.82 475.168L769.35 479.462C768.732 481.278 768.12 483.335 767.518 484.837H766C766.66 483.293 767.304 481.097 768.018 479.009Z" fill="white"/>
<path d="M754.938 484.837C752.978 478.199 750.101 468.013 746.415 455.392C746.389 455.303 746.381 455.209 746.391 455.118C746.4 455.025 746.429 454.937 746.473 454.856C746.518 454.775 746.578 454.703 746.65 454.645C746.723 454.587 746.805 454.544 746.894 454.519C746.983 454.493 747.075 454.485 747.168 454.494C747.259 454.504 747.349 454.532 747.43 454.577C747.511 454.622 747.583 454.682 747.641 454.754C747.698 454.826 747.741 454.909 747.767 454.998C751.496 467.874 754.443 478.199 756.403 484.832L754.938 484.837Z" fill="white"/>
<path d="M747.901 406.714C758.795 405.163 762.913 405.962 767.031 415.132C771.15 424.3 769.025 432.004 762.237 441.833C755.45 451.662 738.987 449.936 732.61 447.544C726.233 445.152 720.789 438.908 717.731 430.011C714.673 421.115 715.6 411.391 720.256 406.085C724.912 400.779 732.743 396.267 739.787 398.52C746.83 400.774 747.901 406.714 747.901 406.714Z" fill="#DE3A93"/>
<path d="M742.686 420.485C742.478 420.485 742.277 420.408 742.12 420.271C741.964 420.134 741.862 419.945 741.834 419.739C741.807 419.532 741.854 419.322 741.969 419.148C742.082 418.975 742.256 418.848 742.457 418.792L745.722 417.896C745.832 417.866 745.947 417.858 746.059 417.873C746.172 417.887 746.281 417.922 746.379 417.978C746.478 418.035 746.565 418.11 746.634 418.199C746.704 418.289 746.755 418.392 746.785 418.501C746.815 418.61 746.824 418.725 746.81 418.838C746.796 418.95 746.759 419.06 746.703 419.157C746.647 419.257 746.573 419.343 746.482 419.413C746.392 419.483 746.29 419.534 746.181 419.564L742.91 420.459C742.837 420.479 742.761 420.488 742.686 420.485Z" fill="black"/>
<path d="M745.883 422.286H745.771L742.415 421.86C742.298 421.852 742.183 421.821 742.078 421.767C741.974 421.713 741.881 421.639 741.807 421.548C741.732 421.458 741.676 421.352 741.644 421.24C741.611 421.128 741.602 421.009 741.616 420.893C741.631 420.776 741.67 420.663 741.728 420.562C741.789 420.46 741.867 420.373 741.962 420.304C742.058 420.233 742.165 420.185 742.279 420.158C742.393 420.131 742.512 420.129 742.628 420.15L745.989 420.577C746.21 420.6 746.412 420.709 746.556 420.878C746.698 421.048 746.77 421.266 746.755 421.488C746.742 421.709 746.644 421.916 746.481 422.066C746.319 422.218 746.105 422.3 745.883 422.297V422.286Z" fill="black"/>
<path d="M718.711 420.229C718.543 420.229 718.378 420.18 718.237 420.086L715.638 418.37C715.461 418.238 715.342 418.045 715.306 417.828C715.268 417.611 715.314 417.388 715.435 417.205C715.557 417.021 715.742 416.892 715.956 416.841C716.17 416.79 716.395 416.823 716.586 416.932L719.185 418.648C719.347 418.747 719.472 418.898 719.54 419.074C719.608 419.251 719.616 419.446 719.561 419.629C719.508 419.81 719.395 419.969 719.241 420.082C719.087 420.193 718.902 420.25 718.711 420.246V420.229Z" fill="black"/>
<path d="M718.855 421.668C718.812 421.674 718.766 421.674 718.722 421.668L716.058 421.253C715.837 421.213 715.64 421.087 715.511 420.903C715.38 420.721 715.327 420.493 715.362 420.271C715.396 420.049 715.516 419.848 715.696 419.714C715.877 419.579 716.101 419.519 716.324 419.548L718.988 419.963C719.203 419.997 719.397 420.111 719.531 420.282C719.666 420.452 719.731 420.667 719.714 420.882C719.697 421.099 719.599 421.302 719.44 421.449C719.282 421.597 719.073 421.679 718.855 421.679V421.668Z" fill="black"/>
<path d="M751.475 397.929C753.282 397.961 754.673 399.186 754.742 400.06C754.811 400.933 751.545 403.662 747.347 408.909L746.228 408.477C750.187 398.323 749.67 397.898 751.475 397.929Z" fill="black"/>
<path d="M750.171 411.749C749.979 411.751 749.791 411.693 749.637 411.578C749.611 411.545 745.882 408.727 742.648 406.751C742.453 406.631 742.314 406.439 742.26 406.215C742.208 405.992 742.246 405.758 742.366 405.563C742.486 405.368 742.678 405.228 742.901 405.176C743.124 405.123 743.358 405.16 743.554 405.281C746.846 407.304 750.65 410.177 750.692 410.203C750.837 410.313 750.944 410.465 750.996 410.639C751.048 410.813 751.046 410.999 750.987 411.17C750.928 411.343 750.816 411.492 750.667 411.596C750.52 411.7 750.341 411.755 750.159 411.754L750.171 411.749Z" fill="black"/>
<path d="M744.694 459.856C743.628 455.456 742.85 451.743 742.381 448.824C741.204 441.439 743.478 440.256 746.697 439.282C749.813 438.333 752.338 436.532 753.91 430.869C755.481 425.205 756.43 425.43 758.284 426.33C760.366 427.452 762.139 429.069 763.447 431.039C764.512 432.782 764.374 434.854 762.382 439.958C761.067 443.141 758.968 445.939 756.281 448.094L757.996 453.634C751.401 453.314 747.432 454.225 744.694 459.856Z" fill="#FF78B9"/>
<path d="M733.874 456.366C734.86 452.105 736.005 447.603 733.874 446.388C730.826 444.641 725.031 442.02 721.487 434.173C721.315 433.78 720.994 433.472 720.594 433.315C720.194 433.158 719.751 433.166 719.356 433.336L719.133 433.426C718.98 433.491 718.843 433.585 718.728 433.704C718.613 433.823 718.523 433.962 718.463 434.117C718.403 434.271 718.374 434.435 718.378 434.6C718.384 434.765 718.42 434.927 718.488 435.077C720.226 438.834 722.341 442.405 724.801 445.733C724.307 447.771 723.658 449.77 722.862 451.71C726.842 453.575 733.874 456.366 733.874 456.366Z" fill="#FF78B9"/>
<path d="M755.104 442.563C754.969 442.435 754.89 442.259 754.883 442.072C754.878 441.885 754.946 441.704 755.072 441.567C756.378 440.202 757.538 438.705 758.53 437.097C760.187 434.301 761.769 429.218 760.624 427.907C761.029 428.248 761.423 428.611 761.79 428.972C761.995 429.181 762.149 429.433 762.242 429.71C762.334 429.987 762.362 430.282 762.323 430.57C761.887 433.118 761.011 435.57 759.734 437.817C758.687 439.509 757.467 441.089 756.095 442.531C756.032 442.599 755.956 442.653 755.872 442.692C755.788 442.73 755.697 442.751 755.604 442.755C755.511 442.757 755.418 442.742 755.332 442.709C755.246 442.676 755.166 442.627 755.099 442.563H755.104Z" fill="black"/>
<path d="M755.531 449.164H755.435C753.003 448.857 750.551 448.728 748.099 448.775C747.987 448.782 747.873 448.765 747.766 448.728C747.659 448.69 747.56 448.632 747.475 448.556C747.39 448.48 747.322 448.389 747.272 448.287C747.223 448.184 747.194 448.073 747.189 447.96C747.182 447.847 747.198 447.733 747.236 447.626C747.274 447.519 747.331 447.42 747.407 447.335C747.483 447.251 747.574 447.182 747.677 447.133C747.779 447.084 747.89 447.056 748.004 447.049C750.55 446.994 753.096 447.127 755.622 447.449C755.84 447.473 756.041 447.581 756.185 447.748C756.327 447.916 756.4 448.131 756.389 448.352C756.377 448.571 756.281 448.779 756.122 448.931C755.963 449.082 755.751 449.168 755.531 449.169V449.164Z" fill="black"/>
<path d="M763.699 472.589C763.515 472.588 763.336 472.529 763.187 472.419C763.04 472.31 762.929 472.157 762.874 471.982L757.455 454.753C757.42 454.644 757.407 454.531 757.416 454.417C757.425 454.305 757.457 454.194 757.508 454.093C757.56 453.991 757.63 453.901 757.717 453.828C757.804 453.754 757.903 453.698 758.012 453.664C758.12 453.628 758.234 453.615 758.347 453.624C758.461 453.634 758.571 453.664 758.672 453.716C758.773 453.768 758.863 453.839 758.937 453.925C759.011 454.012 759.067 454.111 759.102 454.22L764.53 471.465C764.569 471.594 764.576 471.73 764.554 471.863C764.532 471.996 764.479 472.122 764.399 472.231C764.319 472.34 764.216 472.429 764.096 472.491C763.977 472.553 763.844 472.587 763.71 472.589H763.699Z" fill="black"/>
<path d="M760.73 463.149C760.632 463.148 760.535 463.132 760.443 463.101C760.335 463.064 760.236 463.007 760.151 462.931C760.067 462.857 759.997 462.765 759.948 462.664C759.898 462.562 759.869 462.451 759.863 462.337C759.856 462.224 759.872 462.11 759.91 462.003L765.179 446.959C765.254 446.742 765.413 446.565 765.62 446.466C765.826 446.366 766.063 446.353 766.279 446.429C766.496 446.503 766.672 446.663 766.772 446.869C766.872 447.075 766.885 447.313 766.809 447.528L761.535 462.573C761.477 462.741 761.368 462.886 761.223 462.989C761.08 463.092 760.907 463.148 760.73 463.149Z" fill="black"/>
<path d="M728.835 478.071C728.754 478.071 728.673 478.06 728.595 478.039C728.376 477.975 728.191 477.827 728.081 477.627C727.971 477.428 727.942 477.193 728.004 476.973C728.041 476.856 731.386 465.157 732.884 456.905C732.897 456.788 732.934 456.674 732.994 456.571C733.052 456.468 733.132 456.379 733.226 456.309C733.321 456.238 733.43 456.187 733.545 456.161C733.66 456.134 733.78 456.131 733.896 456.152C734.012 456.174 734.123 456.219 734.221 456.284C734.32 456.35 734.404 456.435 734.468 456.535C734.532 456.635 734.574 456.746 734.593 456.864C734.613 456.98 734.608 457.099 734.578 457.214C733.069 465.546 729.698 477.331 729.666 477.459C729.612 477.637 729.501 477.792 729.352 477.903C729.202 478.013 729.021 478.073 728.835 478.071Z" fill="black"/>
<path d="M803.802 462.525C805.279 462.525 806.74 462.816 808.104 463.382C809.468 463.946 810.707 464.775 811.751 465.818C812.794 466.861 813.623 468.102 814.188 469.465C814.753 470.829 815.044 472.29 815.044 473.767V484.838H792.562V473.767C792.562 470.785 793.746 467.927 795.853 465.818C797.962 463.709 800.822 462.525 803.802 462.525Z" fill="#404EED"/>
<path d="M792.563 473.767C794.018 473.765 795.459 474.05 796.803 474.606C798.147 475.161 799.37 475.977 800.4 477.005C801.429 478.034 802.246 479.254 802.803 480.598C803.361 481.941 803.648 483.382 803.65 484.837H781.475C781.475 483.382 781.763 481.941 782.32 480.597C782.878 479.253 783.694 478.031 784.724 477.003C785.754 475.974 786.976 475.16 788.321 474.605C789.666 474.049 791.107 473.764 792.563 473.767Z" fill="#404EED"/>
<path d="M757.987 380.924C757.821 380.924 757.655 380.912 757.491 380.886C751.588 380.039 745.818 379.144 740.341 378.222C739.444 378.064 738.646 377.558 738.121 376.814C737.596 376.069 737.386 375.148 737.536 374.249C737.688 373.351 738.188 372.549 738.928 372.018C739.667 371.487 740.587 371.27 741.487 371.413C746.904 372.325 752.616 373.209 758.471 374.046C759.339 374.164 760.129 374.61 760.683 375.29C761.235 375.97 761.508 376.835 761.447 377.709C761.384 378.583 760.992 379.401 760.35 379.997C759.708 380.594 758.863 380.923 757.987 380.919V380.924Z" fill="black"/>
<path d="M721.785 411.327C721.558 411.326 721.336 411.266 721.14 411.152C720.944 411.039 720.782 410.876 720.668 410.68C720.555 410.484 720.494 410.262 720.492 410.035C720.491 409.809 720.55 409.586 720.661 409.388C720.863 409.042 721.076 408.695 721.3 408.354C721.507 408.111 721.795 407.953 722.111 407.91C722.428 407.866 722.748 407.942 723.013 408.121C723.277 408.299 723.466 408.57 723.544 408.879C723.621 409.189 723.58 409.516 723.431 409.798C723.239 410.08 723.058 410.374 722.898 410.672C722.785 410.869 722.623 411.032 722.428 411.147C722.233 411.262 722.011 411.325 721.785 411.327Z" fill="#FFA8D2"/>
<path d="M724.924 407.433C724.655 407.443 724.39 407.369 724.165 407.22C723.94 407.072 723.768 406.858 723.671 406.607C723.574 406.357 723.556 406.082 723.623 405.821C723.688 405.56 723.835 405.327 724.04 405.153C725.912 403.469 728.136 402.223 730.55 401.504C730.713 401.455 730.884 401.44 731.052 401.458C731.222 401.475 731.385 401.526 731.535 401.607C731.684 401.689 731.816 401.799 731.923 401.93C732.03 402.062 732.11 402.214 732.158 402.377C732.207 402.54 732.222 402.711 732.205 402.88C732.187 403.049 732.136 403.213 732.055 403.363C731.974 403.512 731.864 403.643 731.731 403.751C731.599 403.858 731.448 403.937 731.285 403.986C729.24 404.594 727.357 405.65 725.771 407.076C725.542 407.295 725.241 407.423 724.924 407.433Z" fill="#FFA8D2"/>
<path d="M741.349 378.35C741.155 378.35 740.964 378.333 740.773 378.302C725.856 375.803 702.218 370.247 690.945 367.274C690.064 367.037 689.313 366.46 688.856 365.67C688.399 364.88 688.274 363.941 688.506 363.06C688.74 362.177 689.312 361.422 690.099 360.962C690.886 360.501 691.825 360.37 692.708 360.599C703.853 363.534 727.198 369.032 741.913 371.488C742.761 371.638 743.523 372.1 744.049 372.782C744.574 373.464 744.827 374.318 744.755 375.176C744.685 376.034 744.297 376.836 743.666 377.423C743.037 378.009 742.209 378.34 741.349 378.35Z" fill="#2835BD"/>
<path d="M691.594 388.323H691.414C691.303 388.299 691.197 388.254 691.104 388.189C691.01 388.125 690.931 388.042 690.869 387.946C690.808 387.85 690.766 387.745 690.747 387.632C690.726 387.52 690.728 387.406 690.753 387.295L695.329 366.097C695.353 365.986 695.399 365.881 695.463 365.787C695.527 365.695 695.609 365.615 695.704 365.552C695.799 365.491 695.907 365.449 696.018 365.428C696.129 365.407 696.243 365.41 696.354 365.433C696.465 365.457 696.571 365.503 696.664 365.567C696.758 365.632 696.838 365.714 696.899 365.809C696.96 365.903 697.002 366.011 697.023 366.122C697.044 366.234 697.041 366.349 697.018 366.458L692.441 387.657C692.396 387.848 692.287 388.016 692.133 388.138C691.98 388.259 691.79 388.324 691.594 388.323Z" fill="black"/>
<path d="M687.279 386.853V384.087H705.11C705.11 384.087 705.11 385.841 705.11 386.863C705.102 387.281 705.218 387.691 705.446 388.041C706.309 389.34 706.768 390.865 706.767 392.425V403.741C706.773 405.65 706.091 407.498 704.844 408.944C703.597 410.39 701.869 411.336 699.98 411.609C697.441 411.967 694.863 411.967 692.324 411.609C690.451 411.322 688.745 410.37 687.515 408.929C686.285 407.487 685.615 405.651 685.627 403.757V392.425C685.63 390.86 686.09 389.329 686.954 388.025C687.175 387.675 687.289 387.266 687.279 386.853Z" fill="#8CD9FF"/>
<path d="M688.879 388.046V384.471H703.449V388.041C703.464 388.737 703.667 389.415 704.041 390.002C704.682 391.045 705.021 392.245 705.021 393.47V403.155C705.028 404.755 704.456 406.302 703.411 407.514C702.367 408.724 700.92 409.517 699.337 409.745C697.272 410.028 695.179 410.028 693.114 409.745C691.512 409.532 690.042 408.746 688.976 407.531C687.909 406.316 687.32 404.756 687.318 403.14V393.47C687.315 392.244 687.653 391.042 688.293 389.996C688.663 389.412 688.865 388.737 688.879 388.046Z" fill="#5865F2"/>
<path d="M705.089 385.441C705.089 386.64 701.094 387.609 696.172 387.609C691.249 387.609 687.28 386.624 687.28 385.441L696.192 381.936L705.089 385.441Z" fill="#8CD9FF"/>
<path d="M696.172 388.6C692.037 388.6 688.43 388.003 686.751 387.039C686.301 386.772 685.969 386.341 685.827 385.837C685.685 385.332 685.741 384.791 685.985 384.327L695.404 365.868C695.477 365.727 695.588 365.61 695.724 365.527C695.86 365.445 696.015 365.401 696.174 365.401C696.332 365.401 696.488 365.445 696.623 365.527C696.759 365.61 696.87 365.727 696.943 365.868L706.357 384.327C706.603 384.791 706.66 385.332 706.518 385.837C706.374 386.342 706.042 386.773 705.591 387.039C703.917 388.003 700.305 388.6 696.172 388.6ZM696.172 368.158L687.524 385.111C687.485 385.181 687.472 385.264 687.489 385.343C687.506 385.423 687.55 385.493 687.616 385.542C688.771 386.208 691.877 386.874 696.172 386.874C700.465 386.874 703.576 386.208 704.728 385.542C704.794 385.495 704.84 385.424 704.858 385.345C704.875 385.265 704.863 385.181 704.823 385.111L696.172 368.158Z" fill="black"/>
<path d="M697.044 403.853L699.66 403.171C699.917 403.101 700.137 402.932 700.273 402.702C700.339 402.589 700.384 402.462 700.402 402.33C700.42 402.2 700.411 402.065 700.378 401.937C700.344 401.809 700.286 401.689 700.206 401.583C700.125 401.478 700.025 401.389 699.911 401.322C699.651 401.17 699.342 401.125 699.049 401.2C698.757 401.273 698.505 401.459 698.349 401.717L697.044 403.853Z" fill="white"/>
<path d="M697.045 403.853L697.209 401.158C697.217 401.025 697.199 400.893 697.155 400.767C697.112 400.642 697.042 400.526 696.954 400.428C696.776 400.228 696.527 400.108 696.26 400.092C695.994 400.077 695.731 400.167 695.532 400.342C695.307 400.541 695.17 400.82 695.149 401.119C695.128 401.418 695.226 401.713 695.419 401.941L697.045 403.853Z" fill="white"/>
<path d="M696.49 406.287C697.94 406.746 699.356 406.351 699.687 405.409C699.937 404.615 699.543 403.864 698.158 403.549C697.575 403.403 697.014 403.185 696.485 402.899C695.345 402.303 694.685 402.953 694.434 403.741C694.109 404.689 695.041 405.829 696.49 406.287Z" fill="#121B80"/>
<path d="M699.233 406.488L700.155 406.471C700.893 406.458 701.48 405.851 701.469 405.114C701.456 404.377 700.846 403.79 700.107 403.803L699.186 403.82C698.447 403.833 697.86 404.44 697.873 405.178C697.886 405.914 698.494 406.502 699.233 406.488Z" fill="#FFE75C"/>
<path d="M694.25 393.598L691.873 392.308C691.757 392.245 691.655 392.16 691.572 392.059C691.488 391.955 691.427 391.838 691.389 391.711C691.313 391.454 691.342 391.177 691.47 390.942C691.598 390.706 691.813 390.531 692.071 390.454C692.359 390.369 692.67 390.4 692.936 390.543C693.203 390.684 693.402 390.924 693.494 391.211L694.25 393.598Z" fill="white"/>
<path d="M694.25 393.598L694.734 390.934C694.758 390.803 694.806 390.678 694.879 390.566C694.951 390.455 695.045 390.359 695.155 390.284C695.264 390.208 695.386 390.156 695.516 390.127C695.645 390.1 695.779 390.097 695.908 390.121C696.038 390.146 696.163 390.194 696.274 390.266C696.384 390.338 696.481 390.43 696.556 390.54C696.73 390.788 696.801 391.095 696.75 391.395C696.699 391.694 696.532 391.961 696.284 392.138L694.25 393.598Z" fill="white"/>
<path d="M693.577 393.283C692.335 394.162 691.798 395.532 692.368 396.341C692.847 397.023 693.688 397.162 694.771 396.246C695.238 395.868 695.751 395.554 696.299 395.308C697.465 394.776 697.365 393.837 696.863 393.176C696.294 392.367 694.824 392.405 693.577 393.283Z" fill="#121B80"/>
<path d="M692.131 394.853L691.587 395.598C691.151 396.195 691.282 397.031 691.877 397.464C692.473 397.899 693.308 397.767 693.743 397.17L694.286 396.426C694.722 395.829 694.592 394.994 693.996 394.559C693.401 394.125 692.565 394.256 692.131 394.853Z" fill="#FFE75C"/>
<path d="M696.17 386.256C701.093 386.256 705.083 385.286 705.083 384.087C705.083 382.89 701.093 381.92 696.17 381.92C691.247 381.92 687.256 382.89 687.256 384.087C687.256 385.286 691.247 386.256 696.17 386.256Z" fill="#8CD9FF"/>
<path d="M705.088 384.087H687.256V385.313H705.088V384.087Z" fill="#8CD9FF"/>
<path d="M692.559 384.748C692.756 384.761 692.94 384.843 693.081 384.982C693.221 385.12 693.306 385.304 693.321 385.5C693.316 385.59 693.291 385.68 693.248 385.76C693.206 385.841 693.146 385.911 693.075 385.967C693.003 386.024 692.919 386.063 692.829 386.082C692.74 386.103 692.649 386.105 692.559 386.086L691.083 385.883C690.888 385.854 690.706 385.76 690.57 385.616C690.435 385.473 690.351 385.287 690.333 385.089C690.337 385.001 690.361 384.914 690.403 384.837C690.446 384.758 690.506 384.692 690.578 384.641C690.651 384.59 690.734 384.555 690.821 384.54C690.909 384.526 690.999 384.531 691.083 384.556L692.559 384.748Z" fill="white"/>
<path d="M700.748 388.323C700.551 388.323 700.359 388.255 700.206 388.131C700.053 388.007 699.948 387.835 699.906 387.641L695.329 366.443C695.306 366.332 695.303 366.218 695.324 366.106C695.345 365.995 695.387 365.888 695.448 365.793C695.51 365.697 695.589 365.615 695.683 365.551C695.776 365.487 695.882 365.441 695.993 365.418C696.104 365.394 696.217 365.392 696.33 365.413C696.441 365.433 696.548 365.475 696.643 365.537C696.738 365.598 696.821 365.678 696.885 365.772C696.948 365.864 696.994 365.97 697.018 366.081L701.594 387.278C701.619 387.389 701.621 387.504 701.601 387.617C701.581 387.728 701.539 387.835 701.478 387.93C701.416 388.025 701.337 388.109 701.243 388.173C701.15 388.238 701.044 388.284 700.933 388.307C700.872 388.318 700.809 388.323 700.748 388.323Z" fill="black"/>
<path d="M695.489 368.611C695.365 368.611 695.241 368.584 695.127 368.532C695.024 368.485 694.933 368.417 694.855 368.334C694.778 368.252 694.718 368.154 694.679 368.049C694.64 367.943 694.623 367.83 694.627 367.717C694.632 367.605 694.658 367.494 694.707 367.392L696.943 362.506C697.039 362.294 697.215 362.129 697.432 362.046C697.65 361.964 697.89 361.971 698.103 362.066C698.314 362.161 698.48 362.338 698.562 362.554C698.645 362.772 698.637 363.013 698.541 363.225L696.3 368.11C696.228 368.264 696.113 368.393 695.969 368.482C695.826 368.572 695.658 368.616 695.489 368.611Z" fill="black"/>
<path d="M695.985 368.824C695.763 368.824 695.549 368.739 695.388 368.587C695.228 368.434 695.132 368.225 695.122 368.004L694.849 362.485C694.838 362.256 694.918 362.032 695.072 361.863C695.226 361.692 695.442 361.591 695.67 361.579C695.899 361.567 696.123 361.648 696.293 361.801C696.463 361.955 696.565 362.171 696.575 362.399L696.848 367.918C696.857 368.148 696.777 368.371 696.623 368.541C696.469 368.709 696.255 368.813 696.027 368.824H695.985Z" fill="black"/>
<path d="M720.241 423.991C717.386 420.762 717.796 418.728 718.745 418.162C719.693 417.598 721.227 418.695 723.806 422.841C726.385 426.985 724.233 428.498 720.241 423.991Z" fill="white"/>
<path d="M733.789 424.012C735.669 420.08 739.004 417.171 741.994 417.657C744.982 418.141 743.761 422.574 739.861 425.535C735.963 428.498 731.732 428.322 733.789 424.012Z" fill="white"/>
<path d="M718.899 420.362C718.792 419.578 718.871 418.779 719.129 418.029C719.928 417.934 721.068 418.807 722.72 421.184C722.549 422.344 722 423.23 721.239 423.358C720.179 423.533 719.134 422.201 718.899 420.362Z" fill="black"/>
<path d="M733.704 424.226C733.737 424.157 733.752 424.088 733.79 424.012C734.707 422.009 736.096 420.257 737.839 418.91C738.322 419.888 738.53 420.98 738.441 422.068C738.297 424.439 737.05 426.293 735.66 426.208C734.802 426.155 734.088 425.397 733.704 424.226Z" fill="black"/>
<path d="M726.537 441.322C725.057 441.322 724.087 440.933 723.581 440.134C722.893 439.069 723.298 437.571 723.848 436.276C722.995 435.312 721.674 433.464 722.893 431.673C724.114 429.883 726.293 430.523 731.679 431.881L732.307 432.036C732.418 432.064 732.521 432.112 732.613 432.18C732.704 432.248 732.781 432.333 732.838 432.431C732.897 432.527 732.936 432.636 732.953 432.748C732.969 432.86 732.964 432.975 732.936 433.085C732.909 433.196 732.859 433.299 732.791 433.39C732.724 433.482 732.639 433.559 732.542 433.618C732.444 433.675 732.336 433.714 732.223 433.731C732.111 433.747 731.996 433.742 731.887 433.714L731.257 433.554C727.097 432.488 724.811 431.955 724.332 432.644C724.156 432.905 723.677 433.602 725.499 435.504C725.618 435.63 725.698 435.788 725.726 435.959C725.755 436.13 725.732 436.306 725.659 436.463C724.763 438.408 724.934 439.026 725.046 439.207C725.157 439.387 725.754 439.596 726.553 439.596C728.967 439.596 731.636 438.073 731.663 438.056C731.761 437.992 731.871 437.947 731.987 437.928C732.102 437.907 732.221 437.911 732.336 437.938C732.449 437.964 732.558 438.015 732.652 438.086C732.746 438.155 732.824 438.244 732.883 438.345C732.942 438.447 732.979 438.56 732.994 438.676C733.007 438.793 732.996 438.911 732.964 439.023C732.93 439.137 732.874 439.241 732.799 439.331C732.723 439.421 732.631 439.494 732.526 439.548C732.387 439.622 729.42 441.322 726.537 441.322Z" fill="black"/>
<path d="M727.661 437.971C727.533 437.971 727.406 437.941 727.291 437.886C727.174 437.831 727.071 437.75 726.99 437.651C726.37 436.83 725.854 435.935 725.456 434.987C725.365 434.776 725.362 434.535 725.448 434.323C725.534 434.109 725.702 433.938 725.914 433.847C726.126 433.757 726.365 433.755 726.579 433.84C726.793 433.926 726.964 434.093 727.054 434.306C727.39 435.111 727.823 435.874 728.343 436.575C728.446 436.702 728.51 436.854 728.53 437.016C728.549 437.178 728.522 437.343 728.451 437.49C728.381 437.638 728.271 437.762 728.133 437.848C727.994 437.935 727.835 437.981 727.672 437.981L727.661 437.971Z" fill="black"/>
<path d="M851.646 455.765C831.934 455.232 815.312 443.912 804.827 434.493C793.57 424.37 786.058 413.453 785.899 411.552C785.889 411.447 785.9 411.341 785.93 411.24C785.962 411.14 786.013 411.046 786.081 410.965C786.147 410.884 786.229 410.817 786.323 410.768C786.416 410.718 786.518 410.688 786.624 410.677C786.728 410.668 786.834 410.679 786.935 410.71C787.035 410.741 787.129 410.792 787.21 410.859C787.291 410.927 787.359 411.009 787.407 411.102C787.457 411.196 787.487 411.298 787.497 411.402C787.736 412.67 794.502 423.123 806.143 433.507C816.341 442.637 832.557 453.634 851.668 454.166C851.879 454.166 852.083 454.251 852.232 454.401C852.382 454.55 852.467 454.754 852.467 454.965C852.467 455.178 852.382 455.381 852.232 455.531C852.083 455.681 851.879 455.765 851.668 455.765H851.646Z" fill="black"/>
</g>
<mask id="mask2_10_3121" style="mask-type:alpha" maskUnits="userSpaceOnUse" x="635" y="211" width="214" height="126">
<path d="M838.234 211.517H646.302C640.533 211.517 635.857 216.194 635.857 221.962V326.415C635.857 332.184 640.533 336.86 646.302 336.86H838.234C844.003 336.86 848.679 332.184 848.679 326.415V221.962C848.679 216.194 844.003 211.517 838.234 211.517Z" fill="#C4C4C4"/>
</mask>
<g mask="url(#mask2_10_3121)">
<path d="M849.985 211.32H635.857V337.431H849.985V211.32Z" fill="#EB459F"/>
<path d="M674.607 337.431H699.372L684.496 304.181C684.043 304.595 683.585 305.029 683.152 305.466C683.152 305.466 683.152 305.466 683.152 305.507C673.138 315.521 671.937 327.417 674.607 337.431Z" fill="#5865F2"/>
<path d="M679.306 322.203C679.784 327.668 681.672 332.914 684.784 337.431H748.166C750.599 332.745 751.648 327.464 751.188 322.203C751.031 320.276 750.684 318.37 750.153 316.512C749.838 315.321 749.437 314.157 748.951 313.026C747.846 310.343 746.399 307.812 744.649 305.496C741.644 301.579 737.913 298.277 733.66 295.77C727.304 291.959 720.031 289.948 712.62 289.955C711.585 289.955 710.548 289.999 709.538 290.079C700.783 290.741 693.17 294.262 687.771 299.6C685.999 301.356 684.448 303.324 683.155 305.457C683.155 305.457 683.155 305.457 683.155 305.496C680.151 310.524 678.805 316.368 679.306 322.203Z" fill="#3FA5F2"/>
<path d="M713.696 337.431H833.787C835.329 334.085 836.526 330.591 837.363 327.004C839.06 319.985 838.991 312.655 837.159 305.671C836.484 303.145 835.548 300.696 834.365 298.366C829.769 289.183 821.578 281.897 810.88 277.695C810.592 277.595 810.303 277.47 810.009 277.366C809.716 277.261 809.392 277.137 809.078 277.057C802.429 274.735 795.429 273.579 788.388 273.641C780.011 273.672 771.695 275.069 763.767 277.779C752.558 281.554 742.291 287.693 733.66 295.781C732.42 296.941 731.24 298.122 730.104 299.361C728.398 301.194 726.794 303.121 725.305 305.133C724.93 305.63 724.557 306.129 724.208 306.666C719.814 312.775 716.657 319.683 714.917 327.004C714.114 330.422 713.705 333.92 713.696 337.431Z" fill="#3FA5F2"/>
<path d="M781.726 337.431H785.575C787.555 333.773 790.209 330.522 793.399 327.85C798.258 323.713 804.319 320.754 810.425 319.947C810.837 319.887 811.23 319.843 811.644 319.823C812.262 319.75 812.884 319.715 813.506 319.719C818.103 319.719 821.972 321.188 824.432 323.901C825.004 324.524 825.491 325.218 825.881 325.968C827.35 328.677 827.659 332.073 826.773 335.798C826.647 336.336 826.479 336.893 826.314 337.431H829.935C830.019 337.162 830.103 336.874 830.164 336.605C831.429 331.306 830.661 326.466 827.948 322.761C827.661 322.344 827.342 321.95 826.996 321.581C823.915 318.125 819.158 316.287 813.631 316.263C812.407 316.248 811.183 316.325 809.97 316.491C798.154 318.066 786.446 327.004 781.726 337.431Z" fill="#66BCFF"/>
<path d="M734.656 337.431H738.211C739.599 330.377 742.33 324.566 746.408 320.002C747.553 318.734 748.807 317.568 750.153 316.516C758.245 310.102 768.483 308.718 776.122 308.778C776.571 308.776 777.002 308.601 777.326 308.289C777.65 307.978 777.841 307.554 777.86 307.105C778.234 298.186 784.273 288.047 792.53 282.48C797.885 278.774 804.378 277.081 810.861 277.7C810.572 277.599 810.282 277.475 809.988 277.371C806.829 276.181 803.433 275.758 800.077 276.136C796.722 276.513 793.505 277.68 790.688 279.542C790.656 279.559 790.627 279.58 790.603 279.606C781.829 285.522 775.519 295.662 774.508 305.301C766.77 305.446 757.044 307.085 748.933 313.04C747.071 314.419 745.352 315.978 743.798 317.696C739.188 322.865 736.125 329.464 734.656 337.431Z" fill="#66BCFF"/>
<path d="M766.246 328.657C775.544 327.417 777.515 327.233 779.572 326.964C781.63 326.695 782.421 321.915 783.343 315.81C784.263 309.704 783.178 298.674 783.178 298.674L769.439 302.762L766.246 328.657Z" fill="#FF78B9"/>
<path d="M803.137 294.646C797.495 288.291 768.742 266.206 768.742 266.206L761.969 275.937C761.969 275.937 771.506 286.439 778.342 293.545C764.475 294.65 739.466 297.937 739.466 297.937C721.724 294.381 712.396 293.729 712.396 293.729L732.494 275.408L725.757 265.449C725.757 265.449 708.387 276.1 698.557 283.765C688.728 291.429 687.189 300.884 696.462 308.131C705.733 315.376 708.91 317.448 708.91 317.448L768.846 323.628C786.42 318.772 796.913 313.449 803.276 307.922C809.102 302.877 808.778 300.999 803.137 294.646Z" fill="#FFC619"/>
<path d="M709.681 294.004C709.603 294.004 709.526 293.992 709.451 293.968C709.412 293.968 705.797 292.928 703.765 292.588C703.551 292.543 703.364 292.417 703.242 292.237C703.119 292.057 703.071 291.836 703.107 291.622C703.142 291.407 703.26 291.213 703.435 291.083C703.61 290.952 703.827 290.895 704.043 290.921C706.165 291.279 709.761 292.3 709.915 292.344C710.109 292.403 710.276 292.528 710.386 292.699C710.496 292.869 710.54 293.074 710.513 293.275C710.484 293.476 710.385 293.66 710.232 293.793C710.079 293.927 709.883 294.001 709.681 294.004Z" fill="black"/>
<path d="M765.121 263.128L759.091 273.153C759.091 273.153 764.653 278.889 765.828 280.169C768.079 277.65 770.235 273.327 769.623 266.863C767.099 264.827 765.121 263.128 765.121 263.128Z" fill="black"/>
<path d="M726.22 307.06C718.092 297.15 715.19 292.772 713.537 287.794C712.326 284.143 719.511 286.394 728.859 289.148C738.206 291.901 736.667 294.575 726.22 307.06Z" fill="#FF78B9"/>
<path d="M714.588 292.45C706.003 301.985 705.819 313.728 706.775 329.981C706.775 329.981 692.06 344.806 694.136 357.768C696.213 370.731 716.372 376.243 739.278 376.024C757.702 375.845 759.78 371.467 761.438 362.808C762.523 357.141 763.275 350.598 763.753 345.538C764.271 340.216 765.614 335.009 767.736 330.101C779.026 303.808 769.938 294.322 769.938 294.322L739.352 296.812L714.588 292.45Z" fill="#FF78B9"/>
<path d="M721.322 278.796C714.092 284.119 715.636 292.19 725.805 303.41L730.326 307.942L759.841 303.081C769.302 291.339 767.42 283.512 763.984 278.587C768.785 270.618 769.117 265.141 769.068 260.255C768.988 251.945 761.479 238.957 742.541 239.141C732.174 239.241 723.055 243.255 719.779 256.337C718.643 260.977 718.314 268.362 721.322 278.796Z" fill="#FFE75C"/>
<path d="M757.803 249.867C758.033 249.865 758.261 249.912 758.473 250.004C758.684 250.097 758.875 250.231 759.031 250.401C759.187 250.57 759.306 250.772 759.38 250.99C759.454 251.209 759.482 251.44 759.461 251.67L758.424 263.084C758.134 265.647 756.929 268.019 755.032 269.768C753.134 271.515 750.67 272.52 748.091 272.6H745.796C743.111 272.624 740.509 271.666 738.483 269.905C736.456 268.143 735.146 265.7 734.796 263.038L734.298 259.254C734.241 258.805 734.02 258.393 733.679 258.095C733.337 257.797 732.899 257.635 732.445 257.641C731.987 257.646 731.547 257.821 731.21 258.132C730.875 258.444 730.665 258.868 730.623 259.324L730.071 265.434C729.886 267.441 728.963 269.308 727.481 270.674C725.999 272.038 724.063 272.805 722.047 272.824C720.849 272.859 719.657 272.639 718.549 272.175C717.443 271.712 716.45 271.016 715.634 270.137C714.819 269.257 714.201 268.213 713.823 267.074C713.446 265.935 713.316 264.729 713.443 263.537L714.494 252.018C714.534 251.55 714.749 251.112 715.096 250.792C715.442 250.473 715.895 250.294 716.366 250.291L757.803 249.867Z" fill="black"/>
<path d="M758.928 250.311L769.091 260.255L769.111 262.317L758.978 255.246L758.928 250.311Z" fill="black"/>
<path d="M769.935 294.287C765.229 289.804 758.979 285.821 753.452 283.913C747.924 282.007 746.659 281.425 745.4 284.607C744.14 287.788 742.81 291.319 742.238 292.434C741.665 293.549 735.793 297.713 732.114 300.771C728.433 303.827 724.644 310.306 724.644 310.306L763.247 313.224L769.935 294.287Z" fill="#FF78B9"/>
<path d="M778.198 293.415L783.178 298.688C780.927 305.795 779.439 314.624 778.637 324.504L758.888 325.942L769.938 294.326L778.198 293.415Z" fill="#FF78B9"/>
<path d="M714.588 292.449C713.153 292.184 711.873 291.951 710.918 291.802C710.356 291.709 709.78 291.747 709.236 291.914C708.692 292.081 708.194 292.371 707.78 292.763C703.409 296.916 700.809 301.682 699.857 306.989C698.702 313.463 699.096 314.135 706.545 318.094C711.525 320.748 716.659 308.987 719.493 300.944C719.8 300.065 719.914 299.131 719.826 298.204C719.739 297.276 719.453 296.378 718.988 295.573C718.522 294.766 717.887 294.07 717.129 293.531C716.369 292.991 715.503 292.623 714.588 292.449Z" fill="#FF78B9"/>
<path d="M713.599 261.774L729.724 250.141L723.718 250.196L714.017 257.198L713.599 261.774Z" fill="#5865F2"/>
<path d="M717.471 271.639C718.855 272.459 720.439 272.878 722.047 272.849C724.062 272.831 725.998 272.064 727.481 270.699C728.963 269.333 729.885 267.466 730.069 265.459L730.349 262.341L717.471 271.639Z" fill="#5865F2"/>
<path d="M757.804 249.867L751.161 249.932L734.638 261.858L734.797 263.063C734.968 264.37 735.373 265.635 735.993 266.799L758.899 250.275C758.595 250.012 758.206 249.865 757.804 249.867Z" fill="#5865F2"/>
<path d="M758.426 263.084L758.923 257.606L740.17 271.141C741.876 272.136 743.82 272.652 745.796 272.635H748.093C750.676 272.554 753.144 271.544 755.043 269.789C756.941 268.034 758.142 265.654 758.426 263.084Z" fill="#5865F2"/>
<path d="M729.269 274.697C729.063 274.694 728.864 274.617 728.711 274.479C728.559 274.342 728.461 274.152 728.437 273.947C728.412 273.744 728.465 273.537 728.582 273.368C728.7 273.199 728.875 273.078 729.074 273.028C731.454 272.531 733.913 272.531 736.295 273.028C736.513 273.079 736.702 273.215 736.819 273.404C736.937 273.595 736.975 273.823 736.924 274.041C736.874 274.259 736.739 274.449 736.548 274.566C736.359 274.685 736.129 274.723 735.911 274.672C733.782 274.241 731.59 274.241 729.462 274.672C729.399 274.69 729.334 274.698 729.269 274.697Z" fill="black"/>
<path d="M732.402 234.027C731.308 237.047 731.18 240.332 732.033 243.429C732.18 243.968 732.5 244.443 732.944 244.781C733.387 245.121 733.93 245.305 734.489 245.306H739.637C740.214 245.301 740.783 245.178 741.309 244.945C741.837 244.711 742.31 244.371 742.7 243.947C745.802 240.62 751.455 239.838 755.851 241.686L758.545 237.856C758.811 237.484 758.936 237.028 758.897 236.573C758.858 236.116 758.656 235.689 758.331 235.366C755.78 232.936 752.731 231.091 749.395 229.961C746.059 228.829 742.517 228.437 739.014 228.813C737.534 228.971 736.126 229.543 734.956 230.466C733.786 231.388 732.9 232.623 732.402 234.027Z" fill="#FF8C19"/>
<path d="M779.007 320.51C778.639 324.493 779.276 325.898 780.207 324.265C781.138 322.631 781.382 319.673 781.382 319.673L779.007 320.51Z" fill="black"/>
<path d="M753.884 299.346C753.693 299.347 753.506 299.283 753.356 299.165C753.206 299.045 753.1 298.877 753.058 298.691C753.016 298.504 753.038 298.307 753.123 298.134C753.207 297.962 753.348 297.824 753.522 297.743C756.958 296.094 760.851 294.754 768.695 293.704C768.807 293.687 768.92 293.694 769.03 293.721C769.14 293.749 769.243 293.798 769.333 293.865C769.424 293.933 769.5 294.018 769.558 294.114C769.616 294.212 769.654 294.319 769.671 294.432C769.687 294.543 769.682 294.656 769.653 294.766C769.626 294.876 769.577 294.979 769.509 295.07C769.441 295.16 769.357 295.237 769.26 295.295C769.163 295.352 769.055 295.391 768.944 295.407C761.32 296.448 757.565 297.713 754.268 299.291C754.147 299.34 754.015 299.358 753.884 299.346Z" fill="black"/>
<path d="M786.803 303.599C786.583 303.599 786.373 303.513 786.215 303.36C784.866 302.045 783.815 300.985 783.093 300.208C782.941 300.042 782.86 299.824 782.869 299.6C782.878 299.375 782.976 299.162 783.14 299.01C783.306 298.858 783.524 298.777 783.749 298.786C783.973 298.794 784.186 298.892 784.339 299.058C785.036 299.814 786.061 300.856 787.395 302.15C787.516 302.267 787.597 302.419 787.63 302.583C787.664 302.746 787.649 302.917 787.585 303.073C787.521 303.228 787.414 303.361 787.274 303.454C787.134 303.548 786.971 303.599 786.803 303.599Z" fill="black"/>
<path d="M758.893 335.285C758.721 335.281 758.555 335.224 758.416 335.123C758.278 335.021 758.172 334.88 758.116 334.718C758.06 334.556 758.053 334.381 758.099 334.216C758.143 334.05 758.239 333.902 758.369 333.791C760.859 331.845 764.6 328.996 764.634 328.966C764.721 328.892 764.823 328.838 764.933 328.804C765.043 328.77 765.159 328.759 765.272 328.772C765.386 328.785 765.496 328.821 765.596 328.877C765.695 328.933 765.783 329.009 765.852 329.1C765.923 329.191 765.972 329.296 766.001 329.407C766.028 329.518 766.034 329.633 766.015 329.746C765.997 329.86 765.957 329.968 765.895 330.065C765.835 330.162 765.754 330.245 765.66 330.31C765.621 330.34 761.891 333.184 759.411 335.12C759.261 335.23 759.078 335.289 758.893 335.285Z" fill="black"/>
<path d="M731.094 318.703H726.612C726.495 318.703 726.381 318.678 726.274 318.632C726.166 318.587 726.07 318.519 725.989 318.434C725.911 318.346 725.85 318.246 725.813 318.135C725.773 318.025 725.758 317.908 725.766 317.791C726.079 314.478 726.617 311.187 727.374 307.947C727.535 307.257 727.848 306.612 728.289 306.059C729.455 304.589 730.807 303.275 732.308 302.15C734.927 300.187 737.557 298.24 740.112 296.359C742.178 294.841 743.746 292.744 744.618 290.333C746.984 283.86 747.607 283.108 747.835 282.834C747.984 282.678 748.186 282.584 748.401 282.573C748.616 282.561 748.828 282.631 748.992 282.77C749.157 282.907 749.262 283.103 749.288 283.317C749.315 283.531 749.257 283.746 749.13 283.919C748.976 284.103 748.309 285.149 746.207 290.891C745.221 293.616 743.448 295.987 741.112 297.703C738.558 299.575 735.939 301.523 733.32 303.484C731.928 304.527 730.679 305.745 729.6 307.11C729.313 307.468 729.111 307.884 729.008 308.329C728.342 311.193 727.843 314.092 727.513 317.015H730.287C730.406 315.217 730.7 310.745 730.914 307.772C730.936 307.552 731.043 307.351 731.211 307.209C731.38 307.068 731.597 306.998 731.816 307.012C732.037 307.028 732.24 307.128 732.388 307.293C732.534 307.457 732.611 307.671 732.602 307.892C732.329 311.681 731.926 317.91 731.926 317.91C731.911 318.123 731.819 318.323 731.665 318.469C731.511 318.615 731.307 318.699 731.094 318.703Z" fill="#F551A0"/>
<path d="M778.843 294.087C775.313 303.051 771.398 318.22 774.411 325.514C774.691 326.212 775.069 326.864 775.531 327.457L777.185 327.257C776.511 326.631 775.988 325.86 775.656 325.001C772.991 318.528 776.313 304.455 779.868 295.173L778.843 294.087Z" fill="#F551A0"/>
<path d="M700.567 314.261C700.944 314.658 701.36 315.017 701.811 315.332C702.667 305.402 706.721 297.021 712.986 292.16L711.218 291.857C705.386 296.862 701.577 304.869 700.567 314.261Z" fill="#F551A0"/>
<path d="M759.12 331.037C758.909 331.031 758.708 330.945 758.556 330.798C758.406 330.651 758.315 330.452 758.302 330.241C758.29 330.031 758.356 329.822 758.49 329.659C758.623 329.494 758.812 329.386 759.021 329.354L768.443 328.213C768.658 328.199 768.871 328.268 769.038 328.407C769.205 328.545 769.312 328.741 769.338 328.956C769.364 329.172 769.307 329.388 769.179 329.562C769.05 329.736 768.859 329.854 768.646 329.892L759.239 331.032L759.12 331.037Z" fill="black"/>
<path d="M708.227 245.814C707.654 245.444 707.165 244.955 706.796 244.382C706.425 243.809 706.182 243.163 706.082 242.488L705.733 240.162C705.724 240.106 705.695 240.055 705.653 240.019C705.61 239.982 705.555 239.962 705.498 239.964C705.443 239.962 705.388 239.982 705.346 240.02C705.303 240.056 705.276 240.107 705.269 240.162L704.921 242.488C704.82 243.164 704.576 243.81 704.204 244.383C703.833 244.958 703.345 245.445 702.769 245.814L702.47 246.009C702.437 246.028 702.41 246.057 702.39 246.091C702.371 246.125 702.362 246.164 702.362 246.202C702.36 246.243 702.371 246.282 702.39 246.317C702.409 246.351 702.437 246.381 702.47 246.402L702.769 246.596C703.345 246.965 703.833 247.453 704.204 248.026C704.576 248.601 704.82 249.247 704.921 249.922L705.269 252.249C705.276 252.303 705.303 252.354 705.346 252.391C705.388 252.428 705.443 252.447 705.498 252.447C705.555 252.448 705.61 252.428 705.653 252.391C705.695 252.354 705.724 252.303 705.733 252.249L706.082 249.922C706.182 249.247 706.425 248.602 706.796 248.027C707.165 247.454 707.654 246.966 708.227 246.596L708.531 246.402C708.564 246.38 708.59 246.35 708.608 246.314C708.626 246.28 708.635 246.241 708.635 246.202C708.635 246.164 708.626 246.126 708.608 246.092C708.59 246.059 708.564 246.03 708.531 246.009L708.227 245.814Z" fill="white"/>
</g>
<mask id="mask3_10_3121" style="mask-type:alpha" maskUnits="userSpaceOnUse" x="56" y="172" width="562" height="348">
<path d="M617.577 182.792C617.577 177.024 612.9 172.347 607.132 172.347H66.5886C60.8198 172.347 56.1433 177.024 56.1433 182.792V509.208C56.1433 514.976 60.8198 519.653 66.5886 519.653H607.132C612.9 519.653 617.577 514.976 617.577 509.208V182.792Z" fill="#A8BFFF"/>
</mask>
<g mask="url(#mask3_10_3121)">
<path d="M617.435 172.347H56.0007V519.653H617.435V172.347Z" fill="#FFE75C"/>
<path d="M249.565 463.731C238.284 442.762 225.659 431.468 212.028 430.176C193.866 428.452 179.791 445.465 179.66 445.635L176.03 450.087L176.174 444.342C176.422 434.576 173.236 418.32 165.572 403.984C159.227 392.129 147.476 377.244 127.551 373.68C117.446 371.878 109.834 373.484 104.924 378.446C94.9099 388.564 98.7616 409.559 98.8008 409.781L99.4928 413.476L96.072 411.936C70.4157 400.446 51.0658 399.245 38.5576 408.371C18.7246 422.851 22.5502 459.057 22.5894 459.423L18.6724 459.867C18.4896 458.287 14.5465 421.049 36.2205 405.212C49.3815 395.589 68.9534 396.189 94.4268 406.961C93.6826 400.028 93.2517 384.674 102.104 375.717C107.98 369.776 116.767 367.791 128.217 369.841C163.47 376.135 178.563 415.84 179.987 439.564C185.562 434.197 197.509 424.875 212.367 426.285C227.225 427.695 241.092 439.681 252.999 461.89L249.565 463.731Z" fill="#FFC619"/>
<path d="M467.364 471.996C466.633 455.401 470.615 442.606 479.206 433.962C485.653 427.727 493.998 423.821 502.917 422.864C495.489 415.802 490.209 406.784 487.686 396.85C485.162 386.916 485.501 376.472 488.659 366.721C494.639 348.05 509.667 335.163 526.941 333.884C560.183 331.455 568.918 366.525 570.628 375.743C583.137 372.936 594.522 374.686 604.576 380.966C617.358 388.982 625.466 403.084 629.945 413.503C632.876 420.2 635.15 427.165 636.734 434.302L632.895 435.059C632.817 434.707 625.414 398.644 602.473 384.269C592.903 378.276 581.844 376.853 569.597 380.065L567.43 380.626L567.155 378.394C566.018 370.868 563.626 363.585 560.079 356.85C552.623 343.167 541.604 336.756 527.293 337.827C511.626 338.976 497.942 350.792 492.445 367.948C487.392 383.734 489.09 406.504 509.04 423.112L513.467 426.794L507.709 426.572C507.565 426.572 492.602 426.155 482.013 436.835C474.258 444.669 470.667 456.42 471.346 471.892L467.364 471.996Z" fill="#FFC619"/>
<path d="M306.491 246.399C308.969 239.13 304.929 231.176 297.469 228.634C290.008 226.091 281.952 229.923 279.475 237.191C276.997 244.461 281.037 252.415 288.497 254.957C295.958 257.5 304.014 253.669 306.491 246.399Z" fill="#2A39D4"/>
<path d="M385.353 386.567C397.809 388.656 412.184 395.772 428.557 418.96C440.425 409.677 445.374 413.098 458.065 427.082C470.756 441.065 498.54 467.883 505.068 476.592C511.597 485.301 515.422 502.705 493.318 512.72C471.213 522.734 437.292 495.146 419.731 479.439C402.169 463.731 378.211 444.891 378.211 444.891L385.353 386.567Z" fill="#2331B5"/>
<path d="M452.974 421.65C456.264 429.144 460.573 440.021 462.349 449.069C464.882 461.916 458.954 468.575 447.882 475.73C437.776 482.259 432.762 480.522 427.944 475.613C427.656 475.363 427.285 475.233 426.905 475.245C426.525 475.256 426.163 475.41 425.892 475.678C425.62 475.944 425.46 476.304 425.44 476.683C425.422 477.062 425.546 477.436 425.79 477.728C428.215 480.474 431.521 482.289 435.139 482.859C439.317 483.368 443.978 481.841 449.501 478.263C459.215 471.983 468.446 464.515 465.299 448.481C464.045 442.65 462.334 436.926 460.181 431.364C459.353 429.14 458.092 427.104 456.473 425.371C455.22 423.987 453.77 422.459 452.974 421.65Z" fill="#3442D9"/>
<path d="M449.162 500.068C448.727 500.071 448.306 499.908 447.986 499.611C447.164 498.854 427.683 480.993 419.393 470.991C419.165 470.64 419.074 470.217 419.135 469.802C419.198 469.388 419.408 469.01 419.728 468.739C420.048 468.469 420.455 468.325 420.874 468.333C421.294 468.341 421.696 468.501 422.004 468.785C430.151 478.603 450.076 496.882 450.271 497.065C450.44 497.218 450.576 497.403 450.671 497.608C450.768 497.815 450.822 498.038 450.832 498.264C450.841 498.491 450.805 498.718 450.728 498.931C450.65 499.144 450.53 499.34 450.376 499.507C450.222 499.678 450.035 499.816 449.826 499.913C449.619 500.008 449.391 500.062 449.162 500.068Z" fill="black"/>
<path d="M339.696 375.969C385.68 368.703 417.653 329.254 411.112 287.856C404.571 246.46 361.99 218.792 316.006 226.06C270.024 233.326 238.049 272.775 244.592 314.172C251.133 355.568 293.714 383.235 339.696 375.969Z" fill="#FF78B9"/>
<path d="M270.206 288.211C268.183 304.741 274.319 320.357 283.903 323.112C292.363 325.54 296.959 317.419 299.244 301.503C299.832 297.377 300.55 293.251 301.333 289.151C304.127 274.358 299.767 265.754 291.214 263.299C281.631 260.544 272.217 271.695 270.206 288.211Z" fill="white"/>
<path d="M342.933 298.213C341.51 295.771 340.839 292.963 341.003 290.141C341.168 287.32 342.163 284.609 343.86 282.349C360.337 260.714 372.963 261.458 381.959 262.999C391.895 264.749 396.648 273.862 386.686 294.257C395.825 306.895 390.12 316.766 374.935 316.453C361.852 316.087 351.994 313.829 342.933 298.213Z" fill="#D11583"/>
<path d="M413.111 539.238C422.159 483.029 405.016 473.615 405.342 456.681C405.669 439.747 406.739 416.78 391.215 390.092C391.215 390.092 396.085 367.531 399.219 352.307C399.341 351.712 399.328 351.099 399.178 350.51C399.029 349.922 398.749 349.375 398.358 348.912C397.968 348.447 397.476 348.079 396.922 347.832C396.367 347.585 395.764 347.468 395.158 347.489C382.884 347.897 370.597 347.132 358.469 345.204C337.578 342.031 309.481 336.443 275.612 362.177L283.798 377.114L282.976 378.211C282.399 378.98 281.996 379.865 281.797 380.805C281.598 381.747 281.607 382.719 281.823 383.655C282.04 384.592 282.459 385.47 283.05 386.228C283.642 386.986 284.391 387.605 285.248 388.042L286.997 388.943C286.997 388.943 257.398 402.222 261.041 440.817C264.683 479.413 251.509 514.757 264.018 527.644C266.566 530.226 269.73 532.118 273.209 533.143C276.69 534.169 280.374 534.293 283.916 533.506L343.454 575.183C363.548 603.646 392.886 636.314 392.886 636.314L360.114 693.919L378.641 764.686C408.345 711.415 445.06 660.077 453.521 635.426C461.982 610.775 446.719 593.593 413.111 539.238Z" fill="#2331B5"/>
<path d="M292.912 499.924L272.021 481.345C272.021 481.345 288.277 464.045 297.273 453.56C298.043 452.659 298.787 451.732 299.492 450.792C299.721 450.48 300.056 450.263 300.435 450.184C300.812 450.104 301.208 450.168 301.542 450.361C301.853 450.539 302.095 450.816 302.228 451.147C302.36 451.479 302.377 451.847 302.273 452.189C293.382 482.024 292.912 499.924 292.912 499.924Z" fill="black"/>
<path d="M398.618 355.14C385.875 357.751 369.711 355.675 350.557 352.776C329.993 349.656 312.092 346.953 277.44 365.52L281.788 373.458C313.698 356.341 329.483 358.717 349.186 361.707C367.465 364.475 383.224 366.473 396.607 364.632C397.313 361.446 397.991 358.208 398.618 355.14Z" fill="#3442D9"/>
<path d="M367.742 530.829C368.137 530.878 368.537 530.767 368.852 530.522C369.168 530.278 369.374 529.919 369.426 529.524C373.186 502.013 366.071 472.558 362.898 461.172C359.632 449.458 358.254 437.297 358.811 425.149C359.464 409.272 357.636 396.673 356.2 391.711L367.559 346.339L364.465 346L352.988 391.803L353.118 392.207C354.424 396.503 356.383 409.181 355.73 425.045C355.159 437.511 356.578 449.988 359.934 462.008C363.107 473.21 370.105 502.183 366.462 529.132C366.433 529.328 366.445 529.526 366.495 529.718C366.544 529.909 366.631 530.088 366.749 530.246C366.868 530.404 367.017 530.537 367.187 530.636C367.358 530.737 367.546 530.802 367.742 530.829Z" fill="black"/>
<path d="M327.683 528.792C328.544 523.674 324.053 504.128 317.525 489.557C310.996 474.986 307.954 464.88 299.689 468.379C291.424 471.879 271.97 481.436 271.97 481.436C271.97 481.436 288.213 464.136 297.222 453.652C316.989 430.62 315.501 395.341 286.998 389.061C261.917 399.179 256.89 409.951 229.85 446.51C202.809 483.068 184.386 523.544 206.191 543.703C227.995 563.862 252.777 554.827 298.514 541.157C318.099 535.308 326.821 534.002 327.683 528.884" fill="#2331B5"/>
<path d="M299.022 538.389C294.518 535.634 291.188 527.944 287.885 512.498C282.323 486.607 280.887 478.681 286.893 474.19L283.511 475.822C282.678 476.203 281.952 476.781 281.394 477.507C280.837 478.233 280.465 479.085 280.312 479.987C279.294 486.58 281.448 496.608 284.986 513.138C287.232 523.583 289.491 530.594 292.207 535.203C293.281 537.059 294.941 538.507 296.925 539.319C298.909 540.131 301.106 540.264 303.174 539.695C301.705 539.597 300.282 539.149 299.022 538.389Z" fill="#3442D9"/>
<path d="M248.821 493.696C248.425 493.703 248.04 493.572 247.728 493.328C247.417 493.083 247.201 492.739 247.113 492.353C247.026 491.967 247.074 491.563 247.249 491.209C247.425 490.854 247.716 490.57 248.077 490.406C249.813 489.583 290.811 470.233 298.997 466.76C307.837 463.013 311.61 471.696 316.846 483.734C317.551 485.353 318.295 487.063 319.079 488.826C319.171 489.032 319.223 489.256 319.231 489.483C319.238 489.709 319.201 489.935 319.12 490.147C319.041 490.359 318.919 490.553 318.765 490.719C318.61 490.884 318.423 491.017 318.217 491.111C318.01 491.205 317.787 491.256 317.56 491.264C317.334 491.27 317.108 491.234 316.895 491.153C316.684 491.073 316.489 490.952 316.324 490.798C316.159 490.642 316.025 490.456 315.932 490.249C315.122 488.46 314.378 486.75 313.673 485.118C308.007 472.061 305.565 467.753 300.342 469.959C292.208 473.406 249.97 493.344 249.539 493.539C249.314 493.647 249.069 493.7 248.821 493.696Z" fill="black"/>
<path d="M418.334 405.134C417.429 405.134 416.56 404.78 415.914 404.148C415.268 403.516 414.894 402.655 414.874 401.752C413.928 365.182 416.323 328.602 422.029 292.468C422.127 291.87 422.081 291.256 421.897 290.679C421.711 290.102 421.393 289.577 420.967 289.146C420.54 288.716 420.018 288.393 419.442 288.202C418.866 288.013 418.254 287.962 417.655 288.055L373.471 294.831C373.01 294.929 372.534 294.933 372.071 294.84C371.609 294.749 371.171 294.564 370.781 294.295C370.394 294.027 370.065 293.682 369.815 293.283C369.565 292.883 369.399 292.437 369.327 291.971C369.256 291.505 369.281 291.029 369.4 290.574C369.519 290.117 369.73 289.69 370.02 289.318C370.311 288.947 370.674 288.639 371.088 288.411C371.501 288.186 371.956 288.047 372.427 288.003L416.61 281.213C418.289 280.956 420.005 281.1 421.617 281.632C423.23 282.166 424.693 283.073 425.888 284.28C427.083 285.488 427.975 286.961 428.49 288.58C429.007 290.198 429.133 291.914 428.857 293.591C423.221 329.302 420.857 365.453 421.794 401.595C421.811 402.512 421.466 403.398 420.831 404.062C420.198 404.724 419.328 405.11 418.412 405.134H418.334Z" fill="#66BCFF"/>
<path d="M390.395 401.269C393.646 409.625 399.352 424.653 400.37 429.432C399.966 436.678 398.138 449.017 397.537 452.934C397.49 453.267 397.566 453.606 397.751 453.887C397.937 454.169 398.217 454.373 398.542 454.461C410.019 457.699 415.111 458.561 419.877 458.457C425.453 458.078 431.002 457.377 436.498 456.355C436.759 456.309 437.01 456.212 437.234 456.069C437.459 455.925 437.652 455.74 437.805 455.52C437.956 455.302 438.063 455.055 438.12 454.796C438.174 454.534 438.178 454.266 438.13 454.004C435.453 439.407 433.874 428.792 433.874 428.792C435.049 411.244 436.655 397.456 437.216 392.73C437.272 392.271 437.152 391.808 436.877 391.436C436.602 391.064 436.195 390.812 435.741 390.732C419.903 387.834 414.354 387.037 408.452 386.75C402.551 386.463 400.279 389.609 391.1 398.214C390.691 398.595 390.407 399.09 390.28 399.634C390.155 400.177 390.195 400.746 390.395 401.269Z" fill="white"/>
<path d="M436.182 454.918C436.182 454.918 437.971 455.845 436.495 456.341C436.758 456.295 437.008 456.199 437.232 456.055C437.456 455.911 437.651 455.726 437.802 455.507C437.954 455.289 438.061 455.042 438.117 454.782C438.172 454.521 438.176 454.252 438.127 453.991C435.451 439.394 433.871 428.779 433.871 428.779C435.046 411.231 436.652 397.443 437.213 392.716C437.271 392.258 437.15 391.794 436.874 391.422C436.6 391.05 436.192 390.798 435.738 390.719C419.913 387.82 414.351 387.024 408.45 386.736C407.208 386.657 405.963 386.794 404.768 387.141L415.983 420.879L411.374 450.257L436.182 454.918Z" fill="#FFC619"/>
<path d="M413.153 451.328C414.824 462.073 416.456 469.829 422.762 471.996C429.069 474.164 437.712 468.458 448.941 459.671C460.17 450.884 457.663 442.031 454.307 433.662C450.952 425.293 451.578 415.226 446.786 410.46C440.733 404.859 434.153 399.856 427.136 395.524C421.391 392.038 417.866 391.607 407.382 400.877C396.897 410.147 391.087 415.396 392.145 419.705C392.961 422.786 393.959 425.816 395.135 428.779C390.578 432.487 390.042 435.869 391.335 440.399C392.628 444.93 392.706 448.964 401.428 450.035C410.15 451.106 413.153 451.328 413.153 451.328Z" fill="#FF78B9"/>
<path d="M395.693 428.635C395.329 428.633 394.975 428.515 394.682 428.3C394.386 428.084 394.168 427.783 394.055 427.436C393.943 427.09 393.943 426.716 394.054 426.369C394.165 426.022 394.383 425.719 394.675 425.502C408.894 415.174 421.324 405.917 421.441 405.813C421.621 405.652 421.831 405.53 422.06 405.456C422.29 405.38 422.531 405.354 422.77 405.378C423.01 405.403 423.243 405.476 423.452 405.593C423.662 405.712 423.845 405.871 423.99 406.065C424.133 406.256 424.237 406.477 424.291 406.712C424.346 406.946 424.351 407.19 424.307 407.426C424.263 407.663 424.17 407.887 424.033 408.087C423.897 408.285 423.722 408.454 423.517 408.581C423.387 408.672 410.944 417.955 396.712 428.309C396.415 428.523 396.059 428.638 395.693 428.635Z" fill="black"/>
<path d="M416.69 438.702C410.835 441.453 404.796 443.797 398.619 445.713C398.189 448.834 397.797 451.471 397.575 452.934C397.528 453.267 397.604 453.606 397.789 453.887C397.974 454.169 398.255 454.372 398.58 454.461C410.057 457.699 415.149 458.561 419.915 458.457C425.491 458.078 431.04 457.377 436.536 456.354C436.797 456.309 437.048 456.212 437.272 456.068C437.497 455.925 437.69 455.739 437.843 455.52C437.994 455.302 438.101 455.055 438.157 454.795C438.212 454.534 438.216 454.265 438.168 454.004C437.946 452.79 437.737 451.615 437.528 450.466C437.528 450.466 425.242 445.504 416.69 438.702Z" fill="white"/>
<path d="M437.488 450.453C437.488 450.453 425.24 445.504 416.597 438.702C416.597 438.702 415.148 439.394 412.876 440.386L411.466 449.748C411.455 449.816 411.457 449.885 411.472 449.951C411.488 450.018 411.517 450.082 411.557 450.137C411.596 450.193 411.647 450.24 411.706 450.277C411.765 450.313 411.829 450.338 411.897 450.348L436.195 454.918C436.195 454.918 437.984 455.845 436.508 456.341C436.769 456.298 437.02 456.203 437.245 456.062C437.469 455.921 437.663 455.736 437.814 455.519V455.454C437.938 455.251 438.029 455.03 438.088 454.801C438.14 454.533 438.14 454.259 438.088 453.991C437.866 452.803 437.657 451.641 437.461 450.518L437.488 450.453Z" fill="#FFC619"/>
<path d="M305.147 473.445C311.325 467.84 316.201 460.95 319.431 453.26C321.729 448.337 324.654 441.13 325.633 438.467C327.239 434.184 330.072 434.55 334.015 436.025C337.958 437.501 339.395 438.258 337.932 445.23C336.47 452.202 332.71 468.575 332.71 468.575L305.147 473.445Z" fill="#FF78B9"/>
<path d="M383.592 487.259C381.934 479.869 381.151 476.07 379.219 472.897C377.286 469.724 375.393 468.98 365.431 467.217C361.514 466.525 353.941 465.768 348.94 465.298C359.177 463.914 369.831 463.052 372.181 462.687C375.667 462.138 379.088 462.073 378.056 457.556C377.025 453.038 375.824 451.915 373.317 451.55C367.199 450.73 361.018 450.489 354.855 450.831C345.778 451.598 336.77 453.034 327.906 455.127C322.683 456.668 315.228 465.037 305.109 473.406C307.342 487.873 314.249 510.187 322.514 521.572C335.949 518.164 344.71 508.098 348.353 504.337C364.66 503.58 370.04 505.983 378.709 508.189C384.193 509.586 385.107 505.643 385.76 503.841C386.413 502.039 385.107 493.957 383.592 487.259Z" fill="#FF78B9"/>
<path d="M280.209 290.483C278.773 297.573 280.418 303.892 283.865 304.598C286.763 305.172 289.401 302.77 290.315 296.098C290.746 293.279 291.44 290.508 292.391 287.82C294.375 282.062 291.934 279.464 289.048 278.889C285.601 278.184 281.632 283.328 280.209 290.483Z" fill="black"/>
<path d="M344.668 211.36C350.661 210.799 359.096 214.794 360.689 223.202C362.281 231.611 363.026 244.093 348.938 244.628C342.984 244.824 337.278 241.534 328.883 233.126C322.851 227.08 315.826 224.338 299.257 230.344C291.528 223.568 297.612 209.206 319.482 219.416C311.021 205.419 315.16 196.776 322.576 195.17C329.992 193.564 340.686 196.123 344.668 211.36Z" fill="#2A39D4"/>
<path d="M341.614 236.089C337.319 229.287 334.342 220.656 331.717 213.044C328.871 204.767 326.495 197.912 323.074 195.079L322.539 195.17C321.174 195.453 319.886 196.019 318.752 196.828C319.119 196.713 319.508 196.686 319.888 196.75C323.139 197.416 325.92 205.485 328.871 214.024C331.548 221.858 334.59 230.606 339.068 237.708C340.519 239.972 342.204 242.077 344.095 243.989C345.651 244.463 347.274 244.679 348.9 244.628H349.187C346.246 242.182 343.693 239.303 341.614 236.089Z" fill="black"/>
<path d="M358.601 240.698C357.748 241.696 356.705 242.513 355.533 243.101C356.085 231.555 352.283 220.223 344.878 211.347C346.24 211.257 347.61 211.372 348.939 211.687C355.18 220.074 358.566 230.243 358.601 240.698Z" fill="black"/>
<path d="M443.457 456.981C443.298 456.978 443.14 456.956 442.987 456.916C438.715 455.4 435.135 452.39 432.907 448.442C432.705 448.049 432.659 447.595 432.781 447.169C432.904 446.745 433.182 446.382 433.562 446.156C433.94 445.93 434.392 445.857 434.824 445.951C435.255 446.046 435.634 446.302 435.884 446.666C437.681 449.84 440.531 452.287 443.94 453.586C444.378 453.717 444.747 454.015 444.968 454.415C445.187 454.816 445.241 455.288 445.114 455.728C445.015 456.089 444.798 456.409 444.498 456.635C444.199 456.862 443.832 456.984 443.457 456.981Z" fill="black"/>
<path d="M360.546 425.201C358.815 424.99 357.226 424.136 356.094 422.808C354.962 421.48 354.371 419.776 354.436 418.033L354.997 402.365L358.079 402.744L365.26 418.843C365.584 419.579 365.706 420.387 365.616 421.185C365.526 421.984 365.227 422.745 364.749 423.39C364.27 424.037 363.629 424.543 362.891 424.862C362.154 425.18 361.344 425.297 360.546 425.201Z" fill="#FFE75C"/>
<path d="M303.84 392.756H303.631L286.775 390.693C286.35 390.603 285.974 390.356 285.72 390.001C285.468 389.646 285.359 389.21 285.412 388.777C285.467 388.345 285.681 387.95 286.014 387.669C286.346 387.387 286.771 387.241 287.206 387.259L304.049 389.322C304.506 389.349 304.934 389.558 305.237 389.9C305.541 390.244 305.696 390.693 305.668 391.15C305.641 391.607 305.433 392.034 305.09 392.338C304.746 392.641 304.297 392.796 303.84 392.769V392.756Z" fill="black"/>
<path d="M383.903 488.696L383.59 487.259L383.185 485.444C368.457 482.141 352.842 479.164 337.487 478.851C337.111 478.886 336.762 479.06 336.508 479.339C336.255 479.617 336.114 479.982 336.114 480.359C336.114 480.736 336.255 481.1 336.508 481.379C336.762 481.658 337.111 481.832 337.487 481.867C352.998 482.167 368.94 485.301 383.903 488.696Z" fill="black"/>
<path d="M295.616 284.477L285.014 288.107L298.24 296.058L295.616 284.477Z" fill="white"/>
<path d="M378.12 300.968C377.818 300.965 377.52 300.885 377.257 300.734C376.994 300.583 376.774 300.367 376.619 300.106C376.475 299.845 372.558 293.578 361.708 293.578C361.251 293.595 360.806 293.43 360.471 293.119C360.135 292.809 359.937 292.376 359.92 291.919C359.903 291.463 360.067 291.017 360.378 290.682C360.69 290.346 361.121 290.148 361.578 290.131C370.378 289.439 374.295 285.757 376.475 283.041C376.774 282.718 377.183 282.521 377.622 282.489C378.059 282.456 378.494 282.591 378.837 282.866C379.179 283.14 379.405 283.535 379.469 283.969C379.532 284.404 379.429 284.847 379.178 285.208C376.913 288.048 373.954 290.256 370.587 291.619C374.263 292.84 377.438 295.235 379.622 298.435C379.85 298.832 379.913 299.303 379.796 299.746C379.678 300.188 379.391 300.567 378.995 300.798C378.724 300.929 378.422 300.987 378.12 300.968Z" fill="black"/>
<path d="M216.309 363.979C214.613 362.887 213.168 361.447 212.072 359.755C210.976 358.062 210.253 356.154 209.95 354.16L208.932 347.293C208.907 347.128 208.823 346.978 208.697 346.87C208.569 346.761 208.407 346.703 208.24 346.705C208.075 346.706 207.917 346.767 207.793 346.874C207.668 346.982 207.585 347.129 207.561 347.293L206.529 354.16C206.233 356.154 205.513 358.063 204.419 359.757C203.325 361.45 201.881 362.889 200.184 363.979L199.296 364.554C199.199 364.617 199.121 364.705 199.066 364.808C199.011 364.91 198.982 365.025 198.982 365.141C198.981 365.256 199.01 365.368 199.065 365.469C199.12 365.571 199.199 365.654 199.296 365.716L200.184 366.29C201.875 367.393 203.311 368.844 204.396 370.546C205.481 372.249 206.191 374.163 206.477 376.161L207.508 383.029C207.533 383.192 207.616 383.339 207.741 383.448C207.865 383.555 208.023 383.615 208.187 383.616C208.354 383.617 208.516 383.56 208.644 383.452C208.771 383.343 208.855 383.193 208.879 383.029L209.898 376.161C210.202 374.166 210.925 372.257 212.022 370.562C213.118 368.867 214.562 367.425 216.256 366.329L217.144 365.755C217.242 365.693 217.322 365.61 217.377 365.508C217.431 365.407 217.46 365.295 217.458 365.18C217.459 365.064 217.43 364.949 217.375 364.847C217.32 364.744 217.241 364.657 217.144 364.593L216.309 363.979Z" fill="#66BCFF"/>
<path d="M433.911 219.612C432.936 218.987 432.106 218.159 431.475 217.186C430.844 216.213 430.429 215.118 430.255 213.972L429.668 210.055C429.655 209.961 429.608 209.873 429.536 209.81C429.464 209.748 429.372 209.714 429.276 209.715C429.181 209.714 429.088 209.748 429.016 209.81C428.945 209.873 428.898 209.961 428.884 210.055L428.297 213.972C428.126 215.117 427.713 216.212 427.084 217.185C426.456 218.158 425.628 218.985 424.654 219.612L424.145 219.952C424.089 219.985 424.042 220.034 424.01 220.091C423.978 220.147 423.962 220.213 423.962 220.278C423.962 220.346 423.979 220.411 424.01 220.471C424.042 220.53 424.089 220.581 424.145 220.617L424.654 220.944C425.628 221.571 426.456 222.398 427.084 223.371C427.713 224.344 428.126 225.439 428.297 226.584L428.884 230.501C428.898 230.595 428.945 230.683 429.016 230.745C429.088 230.808 429.181 230.842 429.276 230.841C429.372 230.842 429.464 230.808 429.536 230.745C429.608 230.683 429.655 230.595 429.668 230.501L430.255 226.584C430.429 225.438 430.844 224.342 431.475 223.37C432.106 222.397 432.936 221.569 433.911 220.944L434.421 220.617C434.474 220.578 434.518 220.527 434.551 220.469C434.582 220.41 434.601 220.345 434.603 220.278C434.601 220.213 434.584 220.149 434.552 220.093C434.52 220.035 434.475 219.987 434.421 219.952L433.911 219.612Z" fill="#FFC619"/>
<path d="M481.49 258.782C479.824 257.702 478.406 256.283 477.33 254.614C476.254 252.947 475.545 251.069 475.249 249.107L474.23 242.344C474.208 242.183 474.128 242.037 474.006 241.931C473.883 241.825 473.726 241.768 473.564 241.769C473.401 241.769 473.244 241.828 473.12 241.932C472.996 242.038 472.913 242.183 472.885 242.344L471.88 249.107C471.584 251.071 470.873 252.949 469.795 254.618C468.716 256.285 467.295 257.705 465.626 258.782L464.751 259.343C464.654 259.405 464.575 259.489 464.52 259.59C464.465 259.691 464.438 259.803 464.438 259.918C464.438 260.033 464.465 260.145 464.52 260.245C464.575 260.346 464.654 260.431 464.751 260.492L465.626 261.054C467.295 262.13 468.716 263.55 469.795 265.217C470.873 266.886 471.584 268.765 471.88 270.729L472.885 277.492C472.913 277.653 472.996 277.797 473.12 277.903C473.244 278.008 473.401 278.065 473.564 278.066C473.726 278.068 473.883 278.01 474.006 277.905C474.128 277.799 474.208 277.653 474.23 277.492L475.249 270.729C475.545 268.766 476.254 266.889 477.33 265.221C478.406 263.553 479.824 262.132 481.49 261.054L482.378 260.492C482.474 260.431 482.552 260.346 482.607 260.245C482.662 260.145 482.691 260.033 482.691 259.918C482.691 259.803 482.662 259.691 482.607 259.59C482.552 259.489 482.474 259.405 482.378 259.343L481.49 258.782Z" fill="white"/>
</g>
<defs>
<filter id="filter0_d_10_3121" x="877.404" y="498.762" width="104.453" height="104.453" filterUnits="userSpaceOnUse" color-interpolation-filters="sRGB">
<feFlood flood-opacity="0" result="BackgroundImageFix"/>
<feColorMatrix in="SourceAlpha" type="matrix" values="0 0 0 0 0 0 0 0 0 0 0 0 0 0 0 0 0 0 127 0" result="hardAlpha"/>
<feOffset dy="10.4453"/>
<feGaussianBlur stdDeviation="10.4453"/>
<feColorMatrix type="matrix" values="0 0 0 0 0 0 0 0 0 0 0 0 0 0 0 0 0 0 0.2 0"/>
<feBlend mode="normal" in2="BackgroundImageFix" result="effect1_dropShadow_10_3121"/>
<feBlend mode="normal" in="SourceGraphic" in2="effect1_dropShadow_10_3121" result="shape"/>
</filter>
<filter id="filter1_d_10_3121" x="951.826" y="498.762" width="104.453" height="104.453" filterUnits="userSpaceOnUse" color-interpolation-filters="sRGB">
<feFlood flood-opacity="0" result="BackgroundImageFix"/>
<feColorMatrix in="SourceAlpha" type="matrix" values="0 0 0 0 0 0 0 0 0 0 0 0 0 0 0 0 0 0 127 0" result="hardAlpha"/>
<feOffset dy="10.4453"/>
<feGaussianBlur stdDeviation="10.4453"/>
<feColorMatrix type="matrix" values="0 0 0 0 0 0 0 0 0 0 0 0 0 0 0 0 0 0 0.2 0"/>
<feBlend mode="normal" in2="BackgroundImageFix" result="effect1_dropShadow_10_3121"/>
<feBlend mode="normal" in="SourceGraphic" in2="effect1_dropShadow_10_3121" result="shape"/>
</filter>
</defs>
</svg>
